<?xml version="1.0" encoding="UTF-8" standalone="no"?>
<svg
   version="1.1"
   id="Layer_1"
   x="0px"
   y="0px"
   viewBox="0 0 400 250"
   width="400"
   height="250"
   xmlns="http://www.w3.org/2000/svg"
   xmlns:svg="http://www.w3.org/2000/svg"
   xmlns:rdf="http://www.w3.org/1999/02/22-rdf-syntax-ns#"
   xmlns:cc="http://creativecommons.org/ns#"
   xmlns:dc="http://purl.org/dc/elements/1.1/">
  <metadata
     id="metadata737">
    <rdf:RDF>
      <cc:Work
         rdf:about="">
        <dc:format>image/svg+xml</dc:format>
        <dc:type
           rdf:resource="http://purl.org/dc/dcmitype/StillImage" />
      </cc:Work>
    </rdf:RDF>
  </metadata>
  <defs
     id="defs735">
    <radialGradient
       cx="55.7258"
       cy="32.640263"
       fx="55.7258"
       fy="32.640263"
       r="231.82095"
       gradientTransform="scale(1.3791053,0.72510777)"
       id="radialGradient-1"
       gradientUnits="userSpaceOnUse">
      <stop
         stop-color="#FFFFFF"
         offset="0%"
         id="stop974" />
      <stop
         stop-color="#4C6B97"
         offset="50%"
         id="stop976" />
      <stop
         stop-color="#231F20"
         offset="100%"
         id="stop978" />
    </radialGradient>
  </defs>
  <style
     type="text/css"
     id="style2"> .st0{fill:#EA1F69;} .st1{fill:#424F59;} .st2{fill:#FFFFFF;} .st3{fill:#5CA3A3;} .st4{fill:#ECEDDF;} .st5{opacity:0.6;fill:#ECEDDF;} .st6{fill:#7B7F86;} .st7{fill:#029736;} .st8{fill:#EACCA2;} .st9{fill:#55636B;} .st10{fill:#ECB800;} .st11{fill:#D7D9BB;} .st12{opacity:0.2;} .st13{opacity:0.3;} .st14{fill:#0081B8;} .st15{fill:#9900B9;} .st16{fill:#F47009;} .st17{fill:#EA5F5D;} .st18{fill:#F4BE4A;} .st19{fill:#A0B400;} .st20{fill:#FA4A78;} .st21{fill:#F68E3D;} .st22{fill-rule:evenodd;clip-rule:evenodd;fill:#2CB0B5;} .st23{fill:#E1B720;} .st24{fill:#02D46A;} .st25{opacity:0.3;fill:#424F59;} .st26{fill:#2CB0B5;} .st27{opacity:0.5;} .st28{fill-rule:evenodd;clip-rule:evenodd;fill:#ECEDDF;} </style>
  <rect
     class="st0"
     width="400"
     height="250"
     id="rect4"
     x="0"
     y="0"
     style="display:inline;fill:#162d50;stroke-width:0.632456" />
  <g
     id="g1323"
     style="display:inline"
     transform="translate(-39.351211,-152.925)">
    <g
       id="g1177">
      <path
         class="st2"
         d="M 147.7,341.8 V 219.5 c 0,-1.2 1,-2.1 2.1,-2.1 h 190.1 c 1.2,0 2.1,1 2.1,2.1 v 122.3 z"
         id="path8"
         style="display:inline" />
      <g
         id="g304">
        <path
           class="st17"
           d="m 157.5,220.6 c 0,-1.1 -0.9,-2 -2,-2 -1.1,0 -2,0.9 -2,2 0,1.1 0.9,2 2,2 1.1,0 2,-0.9 2,-2 z"
           id="path298" />
        <path
           class="st23"
           d="m 164.5,220.6 c 0,-1.1 -0.9,-2 -2,-2 -1.1,0 -2,0.9 -2,2 0,1.1 0.9,2 2,2 1.1,0 2,-0.9 2,-2 z"
           id="path300" />
        <path
           class="st24"
           d="m 171.9,220.6 c 0,-1.1 -0.9,-2 -2,-2 -1.1,0 -2,0.9 -2,2 0,1.1 0.9,2 2,2 1.1,0 2,-0.9 2,-2 z"
           id="path302" />
      </g>
    </g>
    <rect
       x="190.89999"
       y="233.8"
       class="st2"
       width="152.08388"
       height="110.35"
       id="rect16"
       style="display:inline;stroke-width:1.0133" />
    <g
       id="g1107">
      <path
         class="st7"
         d="m 156.8,286.8 h 9.5 c 0.1,0 0.1,0 0.1,-0.1 v -1 c 0,-0.1 0,-0.1 -0.1,-0.1 h -9.5 c -0.1,0 -0.1,0 -0.1,0.1 l 0.1,1.1 c -0.1,-0.1 0,0 0,0 z"
         id="path108" />
      <rect
         x="147.31602"
         y="233.8"
         class="st3"
         width="43.583977"
         height="110.22132"
         id="rect18"
         style="display:inline;stroke-width:1.01541" />
      <rect
         x="147.8"
         y="265.20001"
         class="st3"
         width="43.099998"
         height="35.400002"
         id="rect20" />
      <path
         class="st4"
         d="m 168.3,246.3 c 0,-4.7 -3.8,-8.6 -8.6,-8.6 -4.7,0 -8.6,3.8 -8.6,8.6 0,4.7 3.8,8.6 8.6,8.6 4.8,0 8.6,-3.9 8.6,-8.6 z"
         id="path24" />
      <rect
         x="169.8"
         y="249.2"
         class="st4"
         width="8.1000004"
         height="1.1"
         id="rect26" />
      <rect
         x="165.5"
         y="269"
         class="st5"
         width="8"
         height="1.1"
         id="rect28" />
      <rect
         x="176.8"
         y="269"
         class="st5"
         width="2"
         height="1.1"
         id="rect30" />
      <rect
         x="179.8"
         y="269"
         class="st5"
         width="2"
         height="1.1"
         id="rect32" />
      <rect
         x="159.89999"
         y="259.70001"
         class="st5"
         width="8"
         height="1.1"
         id="rect34" />
      <rect
         x="171.2"
         y="259.70001"
         class="st5"
         width="2"
         height="1.1"
         id="rect36" />
      <rect
         x="174.2"
         y="259.70001"
         class="st5"
         width="2"
         height="1.1"
         id="rect38" />
      <rect
         x="169.8"
         y="244.89999"
         class="st4"
         width="10.8"
         height="1.6"
         id="rect40" />
      <rect
         x="180.60001"
         y="249.2"
         class="st4"
         width="7.0999999"
         height="1.1"
         id="rect42" />
      <path
         class="st4"
         d="m 160.7,268.5 h -1.3 v -0.2 c 0,-0.1 -0.1,-0.2 -0.2,-0.2 h -1.4 c -0.1,0 -0.2,0.1 -0.2,0.2 v 0.5 0.5 0.7 c 0,0.2 0.1,0.3 0.3,0.3 h 2.7 c 0.2,0 0.3,-0.1 0.3,-0.3 v -1.2 c 0.1,-0.2 -0.1,-0.3 -0.2,-0.3 z"
         id="path44" />
      <rect
         x="165.5"
         y="274.39999"
         class="st5"
         width="8"
         height="1.1"
         id="rect48" />
      <rect
         x="176.8"
         y="274.39999"
         class="st5"
         width="2"
         height="1.1"
         id="rect50" />
      <rect
         x="179.8"
         y="274.39999"
         class="st5"
         width="2"
         height="1.1"
         id="rect52" />
      <path
         class="st4"
         d="m 160.7,273.9 h -1.3 v -0.2 c 0,-0.1 -0.1,-0.2 -0.2,-0.2 h -1.4 c -0.1,0 -0.2,0.1 -0.2,0.2 v 0.5 0.5 0.7 c 0,0.2 0.1,0.3 0.3,0.3 h 2.7 c 0.2,0 0.3,-0.1 0.3,-0.3 v -1.2 c 0.1,-0.2 -0.1,-0.3 -0.2,-0.3 z"
         id="path54" />
      <rect
         x="165.5"
         y="279.79999"
         class="st5"
         width="8"
         height="1.1"
         id="rect56" />
      <rect
         x="176.8"
         y="279.79999"
         class="st5"
         width="2"
         height="1.1"
         id="rect58" />
      <rect
         x="179.8"
         y="279.79999"
         class="st5"
         width="2"
         height="1.1"
         id="rect60" />
      <path
         class="st4"
         d="m 160.7,279.3 h -1.3 v -0.2 c 0,-0.1 -0.1,-0.2 -0.2,-0.2 h -1.4 c -0.1,0 -0.2,0.1 -0.2,0.2 v 0.5 0.5 0.7 c 0,0.2 0.1,0.3 0.3,0.3 h 2.7 c 0.2,0 0.3,-0.1 0.3,-0.3 v -1.2 c 0.1,-0.1 -0.1,-0.3 -0.2,-0.3 z"
         id="path62" />
      <g
         id="g66">
        <path
           class="st4"
           d="m 155.9,258.8 v 0 c -0.2,-0.5 -0.7,-0.9 -1.3,-0.9 -0.7,0 -1.3,0.6 -1.4,1.3 -0.5,0 -0.9,0.4 -0.9,1 0,0.5 0.4,1 1,1 h 0.8 c 0,0 0.4,0 0.4,0 v -1.1 H 154 l 0.8,-0.9 0.8,0.9 h -0.5 v 1.1 h 1 c 0.6,0 1.1,-0.5 1.1,-1.1 V 260 c -0.2,-0.7 -0.7,-1.2 -1.3,-1.2 z"
           id="path64" />
      </g>
      <path
         class="st4"
         d="m 157.3,286.8 h 27.8 c 0.3,0 0.6,-0.3 0.6,-0.6 v 0 c 0,-0.3 -0.3,-0.6 -0.6,-0.6 h -27.8 c -0.3,0 -0.6,0.3 -0.6,0.6 v 0 c 0,0.3 0.3,0.6 0.6,0.6 z"
         id="path76" />
      <g
         id="g124"
         style="display:none">
        <path
           class="st8"
           d="m 162,243.4 c 0,1.8 -0.1,3.7 -1.4,3.7 -0.5,0 -1.8,-0.2 -2.3,-0.5 -0.7,-0.6 -0.8,-1.7 -0.8,-2.9 0,-1.8 0.7,-2.8 2.1,-2.8 1.5,-0.1 2.4,0.6 2.4,2.5 z"
           id="path110" />
        <path
           class="st8"
           d="m 158.3,244.2 c 0,0.6 -0.3,1.1 -0.6,1.1 -0.4,0 -0.6,-0.5 -0.6,-1.1 0,-0.6 0.3,-1.1 0.6,-1.1 0.3,0 0.6,0.5 0.6,1.1 z"
           id="path112" />
        <polygon
           class="st8"
           points="161.1,242.1 162,242.1 162.3,244.6 161.3,244.6 "
           id="polygon114" />
        <path
           class="st9"
           d="m 161.4,243.3 c 0,-0.2 -0.2,-0.4 -0.4,-0.4 -0.2,0 -0.4,0.2 -0.4,0.4 0,0.2 0.2,0.4 0.4,0.4 0.2,0 0.4,-0.2 0.4,-0.4 z"
           id="path116" />
        <path
           class="st9"
           d="m 161.7,242.1 h -1.3 c 0,0 -1.6,-0.2 -1.7,0.3 -0.1,0.5 -0.2,0.5 -0.2,0.8 0.1,0.6 0.1,0.8 0.1,0.8 l -0.5,-0.1 c 0,0 0.2,-0.7 -0.2,-0.8 -0.3,-0.1 -0.5,0 -0.6,0.2 0.1,-0.9 -0.2,-2.8 1.5,-2.8 1.7,0 2.6,-0.2 3.2,-0.1 0.4,0.1 0.9,1.4 -0.3,1.7 z"
           id="path118" />
        <path
           class="st9"
           d="m 155.2,250.6 h 9 c 0,-1.7 -1.4,-3.1 -3.1,-3.1 h -2.7 c -1.8,-0.1 -3.2,1.3 -3.2,3.1 z"
           id="path120" />
        <polygon
           class="st8"
           points="160.5,247.6 160.5,246.1 158.3,246.1 158.3,247.6 159.7,249 "
           id="polygon122" />
      </g>
    </g>
    <g
       id="g1126">
      <path
         class="st6"
         d="m 203.6,245.5 h -1.2 v -0.2 c 0,-0.1 -0.1,-0.2 -0.2,-0.2 H 201 c -0.1,0 -0.2,0.1 -0.2,0.2 v 0.4 0.5 0.7 c 0,0.2 0.1,0.3 0.3,0.3 h 2.6 c 0.2,0 0.3,-0.1 0.3,-0.3 v -1.2 c -0.1,0 -0.2,-0.2 -0.4,-0.2 z"
         id="path46" />
      <rect
         x="200.10001"
         y="237.2"
         class="st7"
         width="20"
         height="5.6999998"
         id="rect74" />
      <rect
         x="203"
         y="239.7"
         class="st4"
         width="8.8000002"
         height="0.69999999"
         id="rect78" />
      <rect
         x="214.39999"
         y="239.7"
         class="st4"
         width="2.5999999"
         height="0.69999999"
         id="rect80" />
      <rect
         x="221.10001"
         y="237.2"
         class="st4"
         width="20"
         height="5.6999998"
         id="rect82" />
      <rect
         x="224"
         y="239.7"
         class="st6"
         width="7.3000002"
         height="0.69999999"
         id="rect84" />
      <rect
         x="232.10001"
         y="239.7"
         class="st6"
         width="1.5"
         height="0.69999999"
         id="rect86" />
      <rect
         x="234"
         y="239.7"
         class="st6"
         width="2.2"
         height="0.69999999"
         id="rect88" />
      <rect
         x="242"
         y="237.2"
         class="st4"
         width="20"
         height="5.6999998"
         id="rect90" />
      <rect
         x="244.89999"
         y="239.7"
         class="st6"
         width="8.8000002"
         height="0.69999999"
         id="rect92" />
      <rect
         x="255"
         y="239.7"
         class="st6"
         width="2.5999999"
         height="0.69999999"
         id="rect94" />
      <rect
         x="205.5"
         y="246"
         class="st6"
         width="21.299999"
         height="0.5"
         id="rect96" />
      <rect
         x="228.8"
         y="246"
         class="st6"
         width="6.1999998"
         height="0.5"
         id="rect98" />
      <rect
         x="262.89999"
         y="237.2"
         class="st4"
         width="20"
         height="5.6999998"
         id="rect100" />
      <rect
         x="265.89999"
         y="239.7"
         class="st6"
         width="8.8000002"
         height="0.69999999"
         id="rect102" />
      <rect
         x="277.29999"
         y="239.7"
         class="st4"
         width="2.5999999"
         height="0.69999999"
         id="rect104" />
    </g>
    <g
       id="g1081">
      <rect
         x="199.5"
         y="253.10001"
         class="st4"
         width="27.9"
         height="23.5"
         id="rect68" />
      <rect
         x="235.5"
         y="253.10001"
         class="st4"
         width="27.9"
         height="23.5"
         id="rect70" />
      <rect
         x="271.60001"
         y="253.10001"
         class="st4"
         width="27.9"
         height="23.5"
         id="rect72" />
      <rect
         x="199.5"
         y="284.39999"
         class="st4"
         width="27.9"
         height="23.5"
         id="rect126" />
      <rect
         x="235.5"
         y="284.39999"
         class="st4"
         width="27.9"
         height="23.5"
         id="rect128" />
      <rect
         x="271.60001"
         y="284.39999"
         class="st4"
         width="27.9"
         height="23.5"
         id="rect130" />
      <rect
         x="307.60001"
         y="284.39999"
         class="st4"
         width="27.9"
         height="23.5"
         id="rect132" />
      <rect
         x="199.5"
         y="312.5"
         class="st4"
         width="27.9"
         height="23.5"
         id="rect134" />
      <rect
         x="235.5"
         y="312.5"
         class="st4"
         width="27.9"
         height="23.5"
         id="rect136" />
      <rect
         x="271.60001"
         y="312.5"
         class="st4"
         width="27.9"
         height="23.5"
         id="rect138" />
      <rect
         x="307.60001"
         y="312.5"
         class="st4"
         width="27.9"
         height="23.5"
         id="rect140"
         style="display:inline" />
      <rect
         x="307.60001"
         y="253.10001"
         class="st4"
         width="27.9"
         height="23.5"
         id="rect218" />
    </g>
    <g
       id="g1066"
       style="display:inline">
      <g
         id="g148">
        <rect
           x="199.5"
           y="277.89999"
           class="st11"
           width="4.4000001"
           height="1.3"
           id="rect144" />
        <rect
           x="204.8"
           y="277.89999"
           class="st11"
           width="8.1999998"
           height="1.3"
           id="rect146" />
      </g>
      <g
         id="g154">
        <rect
           x="235.3"
           y="309.29999"
           class="st11"
           width="4.4000001"
           height="1.3"
           id="rect150" />
        <rect
           x="240.7"
           y="309.29999"
           class="st11"
           width="8.1999998"
           height="1.3"
           id="rect152" />
      </g>
      <g
         id="g160">
        <rect
           x="308.29999"
           y="277.89999"
           class="st11"
           width="4.4000001"
           height="1.3"
           id="rect156" />
        <rect
           x="313.60001"
           y="277.89999"
           class="st11"
           width="8.1999998"
           height="1.3"
           id="rect158" />
      </g>
      <rect
         x="236.39999"
         y="277.89999"
         class="st11"
         width="6.3000002"
         height="1.3"
         id="rect162" />
      <rect
         x="244.5"
         y="277.89999"
         class="st11"
         width="12.4"
         height="1.3"
         id="rect164" />
      <rect
         x="273.20001"
         y="308.89999"
         class="st11"
         width="6.3000002"
         height="1.3"
         id="rect166" />
      <rect
         x="281.29999"
         y="308.89999"
         class="st11"
         width="12.4"
         height="1.3"
         id="rect168" />
      <rect
         x="199.60001"
         y="309.39999"
         class="st11"
         width="6.3000002"
         height="1.3"
         id="rect170" />
      <rect
         x="207.7"
         y="309.39999"
         class="st11"
         width="12.4"
         height="1.3"
         id="rect172" />
      <rect
         x="273.79999"
         y="277.89999"
         class="st11"
         width="3.5"
         height="1.3"
         id="rect174" />
      <rect
         x="279.10001"
         y="277.89999"
         class="st11"
         width="15.2"
         height="1.3"
         id="rect176" />
      <g
         id="g182">
        <rect
           x="271.70001"
           y="337.5"
           class="st11"
           width="4.4000001"
           height="1.3"
           id="rect178" />
        <rect
           x="277"
           y="337.5"
           class="st11"
           width="8.1999998"
           height="1.3"
           id="rect180" />
      </g>
      <rect
         x="199.8"
         y="337.5"
         class="st11"
         width="6.3000002"
         height="1.3"
         id="rect184" />
      <rect
         x="207.89999"
         y="337.5"
         class="st11"
         width="12.4"
         height="1.3"
         id="rect186" />
      <rect
         x="237.2"
         y="337.5"
         class="st11"
         width="3.5"
         height="1.3"
         id="rect188" />
      <rect
         x="242.39999"
         y="337.5"
         class="st11"
         width="15.2"
         height="1.3"
         id="rect190" />
    </g>
    <g
       id="g288"
       style="display:inline">
      <g
         id="g280"
         style="display:inline">
        <g
           id="g286"
           style="display:inline">
          <path
             class="st2"
             d="m 247.3,296.3 v 1.4 H 247 v -3.3 h 1.1 c 0.3,0 0.6,0.1 0.8,0.3 0.2,0.2 0.3,0.4 0.3,0.7 0,0.3 -0.1,0.5 -0.3,0.7 -0.2,0.2 -0.5,0.3 -0.8,0.3 h -0.8 z m 0,-0.2 h 0.9 c 0.3,0 0.5,-0.1 0.6,-0.2 0.1,-0.1 0.2,-0.3 0.2,-0.5 0,-0.2 -0.1,-0.4 -0.2,-0.5 -0.1,-0.1 -0.3,-0.2 -0.6,-0.2 h -0.9 z"
             id="path282" />
          <path
             class="st2"
             d="m 251.8,296.9 c 0,-0.2 -0.1,-0.3 -0.2,-0.4 -0.1,-0.1 -0.4,-0.2 -0.7,-0.3 -0.4,-0.1 -0.6,-0.2 -0.8,-0.4 -0.2,-0.1 -0.3,-0.3 -0.3,-0.6 0,-0.3 0.1,-0.5 0.3,-0.6 0.2,-0.2 0.5,-0.2 0.8,-0.2 0.3,0 0.6,0.1 0.8,0.3 0.2,0.2 0.3,0.4 0.3,0.7 v 0 h -0.2 c 0,-0.2 -0.1,-0.4 -0.2,-0.5 -0.2,-0.1 -0.4,-0.2 -0.6,-0.2 -0.3,0 -0.5,0.1 -0.6,0.2 -0.1,0.1 -0.2,0.3 -0.2,0.4 0,0.2 0.1,0.3 0.2,0.4 0.1,0.1 0.4,0.2 0.7,0.3 0.4,0.1 0.6,0.2 0.8,0.4 0.2,0.2 0.3,0.4 0.3,0.6 0,0.3 -0.1,0.5 -0.3,0.6 -0.2,0.2 -0.5,0.2 -0.8,0.2 -0.3,0 -0.6,-0.1 -0.9,-0.2 -0.2,-0.2 -0.4,-0.4 -0.4,-0.7 v 0 h 0.2 c 0,0.3 0.1,0.4 0.3,0.6 0.2,0.1 0.4,0.2 0.7,0.2 0.3,0 0.5,-0.1 0.6,-0.2 0.1,-0.3 0.2,-0.4 0.2,-0.6 z"
             id="path284" />
        </g>
        <g
           class="st13"
           id="g196">
          <path
             class="st14"
             d="m 256.2,301 c 0,1 -0.8,1.7 -1.7,1.7 h -10 c -1,0 -1.7,-0.8 -1.7,-1.7 v -9.8 c 0,-1 0.8,-1.7 1.7,-1.7 h 10 c 1,0 1.7,0.8 1.7,1.7 z"
             id="path194" />
        </g>
        <g
           class="st13"
           id="g200">
          <path
             class="st15"
             d="m 292.2,301 c 0,1 -0.8,1.7 -1.7,1.7 h -10 c -1,0 -1.7,-0.8 -1.7,-1.7 v -9.8 c 0,-1 0.8,-1.7 1.7,-1.7 h 10 c 1,0 1.7,0.8 1.7,1.7 z"
             id="path198" />
        </g>
        <g
           class="st13"
           id="g206">
          <path
             class="st16"
             d="m 256.2,269.7 c 0,1 -0.8,1.7 -1.7,1.7 h -10 c -1,0 -1.7,-0.8 -1.7,-1.7 v -9.8 c 0,-1 0.8,-1.7 1.7,-1.7 h 10 c 1,0 1.7,0.8 1.7,1.7 z"
             id="path202" />
          <polygon
             class="st2"
             points="251.7,264.8 248.1,267.3 248.1,262.4 "
             id="polygon204" />
        </g>
        <g
           class="st13"
           id="g210">
          <path
             class="st17"
             d="m 220.1,329.2 c 0,1 -0.8,1.7 -1.7,1.7 h -10 c -1,0 -1.7,-0.8 -1.7,-1.7 v -9.8 c 0,-1 0.8,-1.7 1.7,-1.7 h 10 c 1,0 1.7,0.8 1.7,1.7 z"
             id="path208" />
        </g>
        <g
           class="st13"
           id="g216">
          <path
             class="st18"
             d="m 292.4,270.1 c 0,1 -0.8,1.8 -1.8,1.8 h -10.2 c -1,0 -1.8,-0.8 -1.8,-1.8 v -10 c 0,-1 0.8,-1.8 1.8,-1.8 h 10.2 c 1,0 1.8,0.8 1.8,1.8 z"
             id="path212" />
          <path
             class="st2"
             d="m 289.3,267.8 c -0.2,-0.5 -1.2,-3.8 -1.2,-3.8 v -0.1 L 285,261 c -0.1,-0.1 -0.4,-0.3 -1,-0.1 -0.2,0.1 -0.4,0.3 -0.7,0.6 -0.1,0.1 -0.2,0.2 -0.3,0.3 -0.2,0.2 -0.4,0.5 -0.7,0.7 -0.1,0.1 -0.2,0.2 -0.3,0.3 -0.3,0.4 -0.6,0.6 -0.7,0.9 -0.2,0.5 0,0.9 0.2,1 l 3.1,3 4,1 c 0.1,0 0.4,0.1 0.6,-0.1 0.1,-0.3 0.2,-0.5 0.1,-0.8 z m -1,-1.3 -1.1,1.2 -2.2,-0.5 0.5,-0.3 v 0 c 0.1,0 0.2,-0.1 0.5,-1.2 1.1,-0.4 1.2,-0.6 1.3,-0.7 l 0.2,-0.6 c 0.2,0.3 0.5,1.2 0.8,2.1 z m -4.9,-4.4 c 0.1,-0.1 0.2,-0.2 0.3,-0.3 0.2,-0.2 0.4,-0.4 0.5,-0.4 0.3,-0.1 0.5,0 0.5,0 l 2.6,2.5 -0.3,0.8 c -0.1,0 -0.3,0.2 -1,0.4 l -2.8,-2.7 c -0.1,-0.1 0.1,-0.2 0.2,-0.3 z m -1.6,2.1 c 0,0 -0.1,-0.1 0,-0.4 0.1,-0.2 0.4,-0.6 0.6,-0.7 0.1,-0.1 0.2,-0.2 0.3,-0.3 l 2.9,2.7 c -0.1,0.5 -0.2,0.7 -0.3,0.8 l -0.8,0.4 z m 7,3.8 -1,-0.2 0.7,-0.7 c 0.1,0.4 0.2,0.7 0.3,0.9 z"
             id="path214" />
        </g>
        <g
           class="st13"
           id="g228">
          <path
             class="st19"
             d="m 256.1,329.1 c 0,0.9 -0.8,1.7 -1.7,1.7 h -9.9 c -0.9,0 -1.7,-0.8 -1.7,-1.7 v -9.7 c 0,-0.9 0.8,-1.7 1.7,-1.7 h 9.9 c 0.9,0 1.7,0.8 1.7,1.7 z"
             id="path220" />
          <g
             id="g226">
            <path
               class="st2"
               d="m 249.9,322.6 c -0.8,0 -1.4,0.6 -1.4,1.4 0,0.8 0.7,1.4 1.4,1.4 0.8,0 1.4,-0.6 1.4,-1.4 0,-0.7 -0.6,-1.4 -1.4,-1.4 z"
               id="path222" />
            <path
               class="st2"
               d="m 253.6,326.1 v -3.8 c 0,-0.6 -0.4,-1 -1,-1 h -0.8 l -0.4,-0.6 h -2.9 l -0.3,0.6 h -0.9 v -0.1 c 0,0 -0.2,0 -0.6,0 -0.4,0 -0.6,0 -0.6,0 v 0.2 c -0.6,0.1 -1.1,0.5 -1.1,1 v 3.8 c 0,0.6 0.5,1 1,1 h 6.5 c 0.6,-0.1 1.1,-0.5 1.1,-1.1 z m -7.5,-3.4 c -0.1,0 -0.3,-0.1 -0.3,-0.3 0,-0.1 0.1,-0.3 0.3,-0.3 0.1,0 0.3,0.1 0.3,0.3 0,0.2 -0.1,0.3 -0.3,0.3 z m 3.8,3.7 c -1.3,0 -2.4,-1.1 -2.4,-2.4 0,-1.3 1.1,-2.4 2.4,-2.4 1.3,0 2.4,1.1 2.4,2.4 0,1.4 -1.1,2.4 -2.4,2.4 z"
               id="path224" />
          </g>
        </g>
        <g
           class="st13"
           id="g238">
          <path
             class="st19"
             d="m 219.7,300.9 c 0,0.9 -0.8,1.7 -1.7,1.7 h -9.9 c -0.9,0 -1.7,-0.8 -1.7,-1.7 v -9.7 c 0,-0.9 0.8,-1.7 1.7,-1.7 h 9.9 c 0.9,0 1.7,0.8 1.7,1.7 z"
             id="path230" />
          <g
             id="g236">
            <path
               class="st2"
               d="m 213.5,294.4 c -0.8,0 -1.4,0.6 -1.4,1.5 0,0.8 0.7,1.4 1.4,1.4 0.8,0 1.4,-0.6 1.4,-1.4 0,-0.8 -0.6,-1.5 -1.4,-1.5 z"
               id="path232" />
            <path
               class="st2"
               d="m 217.1,297.9 v -3.8 c 0,-0.6 -0.4,-1 -1,-1 h -0.7 l -0.4,-0.6 h -2.9 l -0.3,0.6 h -0.9 V 293 c 0,0 -0.2,0 -0.6,0 -0.4,0 -0.6,0 -0.6,0 v 0.2 c -0.6,0.1 -1.1,0.5 -1.1,1 v 3.8 c 0,0.6 0.5,1 1,1 h 6.5 c 0.6,-0.1 1,-0.6 1,-1.1 z m -7.4,-3.4 c -0.1,0 -0.3,-0.1 -0.3,-0.3 0,-0.1 0.1,-0.3 0.3,-0.3 0.2,0 0.3,0.1 0.3,0.3 0,0.2 -0.1,0.3 -0.3,0.3 z m 3.8,3.7 c -1.3,0 -2.4,-1.1 -2.4,-2.4 0,-1.3 1.1,-2.4 2.4,-2.4 1.3,0 2.4,1.1 2.4,2.4 -0.1,1.4 -1.1,2.4 -2.4,2.4 z"
               id="path234" />
          </g>
        </g>
        <g
           id="g246">
          <path
             class="st2"
             d="m 210.3,324.5 v 1.4 H 210 v -3.3 h 1.1 c 0.3,0 0.6,0.1 0.8,0.3 0.2,0.2 0.3,0.4 0.3,0.7 0,0.3 -0.1,0.5 -0.3,0.7 -0.2,0.2 -0.5,0.3 -0.8,0.3 h -0.8 z m 0,-0.2 h 0.9 c 0.3,0 0.5,-0.1 0.6,-0.2 0.1,-0.1 0.2,-0.3 0.2,-0.5 0,-0.2 -0.1,-0.4 -0.2,-0.5 -0.1,-0.1 -0.3,-0.2 -0.6,-0.2 h -0.9 z"
             id="path240" />
          <path
             class="st2"
             d="m 212.9,325.9 v -3.3 h 1 c 0.4,0 0.7,0.1 1,0.4 0.3,0.3 0.4,0.6 0.4,1 v 0.4 c 0,0.4 -0.1,0.8 -0.4,1 -0.3,0.3 -0.6,0.4 -1,0.4 h -1 z m 0.2,-3.1 v 2.8 h 0.7 c 0.3,0 0.6,-0.1 0.8,-0.3 0.2,-0.2 0.3,-0.5 0.3,-0.9 V 324 c 0,-0.3 -0.1,-0.6 -0.3,-0.9 -0.2,-0.2 -0.5,-0.3 -0.8,-0.3 z"
             id="path242" />
          <path
             class="st2"
             d="m 217.8,324.3 h -1.6 v 1.5 h -0.3 v -3.3 h 2.1 v 0.2 h -1.8 v 1.3 h 1.6 z"
             id="path244" />
        </g>
        <g
           id="g254">
          <path
             class="st2"
             d="m 283,294.4 h 0.3 v 2.4 c 0,0.3 -0.1,0.5 -0.3,0.7 -0.2,0.2 -0.4,0.3 -0.7,0.3 -0.3,0 -0.6,-0.1 -0.7,-0.2 -0.2,-0.2 -0.3,-0.4 -0.3,-0.7 v 0 h 0.3 c 0,0.2 0.1,0.4 0.2,0.5 0.1,0.1 0.3,0.2 0.5,0.2 0.2,0 0.4,-0.1 0.5,-0.2 0.1,-0.1 0.2,-0.3 0.2,-0.5 z"
             id="path248" />
          <path
             class="st2"
             d="m 284.4,296.3 v 1.4 h -0.3 v -3.3 h 1.1 c 0.3,0 0.6,0.1 0.8,0.3 0.2,0.2 0.3,0.4 0.3,0.7 0,0.3 -0.1,0.5 -0.3,0.7 -0.2,0.2 -0.5,0.3 -0.8,0.3 h -0.8 z m 0,-0.2 h 0.9 c 0.3,0 0.5,-0.1 0.6,-0.2 0.1,-0.1 0.2,-0.3 0.2,-0.5 0,-0.2 -0.1,-0.4 -0.2,-0.5 -0.1,-0.1 -0.3,-0.2 -0.6,-0.2 h -0.9 z"
             id="path250" />
          <path
             class="st2"
             d="m 289.3,297.3 c -0.1,0.1 -0.2,0.2 -0.4,0.3 -0.2,0.1 -0.4,0.1 -0.7,0.1 -0.4,0 -0.7,-0.1 -0.9,-0.4 -0.2,-0.3 -0.4,-0.6 -0.4,-1 v -0.6 c 0,-0.4 0.1,-0.7 0.3,-1 0.2,-0.3 0.5,-0.4 0.9,-0.4 0.4,0 0.6,0.1 0.8,0.3 0.2,0.2 0.3,0.4 0.3,0.7 v 0 h -0.3 c 0,-0.2 -0.1,-0.4 -0.3,-0.5 -0.1,-0.1 -0.4,-0.2 -0.6,-0.2 -0.3,0 -0.5,0.1 -0.7,0.3 -0.2,0.2 -0.3,0.5 -0.3,0.8 v 0.6 c 0,0.3 0.1,0.6 0.3,0.8 0.2,0.2 0.4,0.3 0.7,0.3 0.2,0 0.4,0 0.6,-0.1 0.2,-0.1 0.3,-0.1 0.3,-0.2 v -0.9 H 288 V 296 h 1.1 v 1.3 z"
             id="path252" />
        </g>
        <g
           class="st13"
           id="g260">
          <path
             class="st20"
             d="m 220.1,269.7 c 0,1 -0.8,1.7 -1.7,1.7 h -10 c -1,0 -1.7,-0.8 -1.7,-1.7 v -9.8 c 0,-1 0.8,-1.7 1.7,-1.7 h 10 c 1,0 1.7,0.8 1.7,1.7 z"
             id="path256" />
          <path
             class="st2"
             d="m 216.3,266.6 c 0,0 0,-3.7 0,-4.7 0,-0.1 -0.1,-0.3 -0.3,-0.3 h -0.6 l -3.3,0.4 -0.6,0.1 c -0.1,0 -0.2,0.1 -0.2,0.3 v 3.7 c -0.2,-0.1 -0.4,-0.1 -0.6,0 -0.7,0.1 -1.3,0.6 -1.2,1.2 0.1,0.6 0.7,1 1.5,0.8 0.7,-0.1 1.3,-0.6 1.2,-1.2 0,0 0,0 0,0 v 0 -3.1 l 3.3,-0.4 v 2.4 c -0.2,0 -0.4,-0.1 -0.6,0 -0.7,0.1 -1.3,0.6 -1.2,1.2 0.1,0.6 0.7,0.9 1.5,0.8 0.7,0 1.2,-0.6 1.1,-1.2 z"
             id="path258" />
        </g>
        <g
           class="st13"
           id="g266">
          <path
             class="st20"
             d="m 328.3,301 c 0,1 -0.8,1.7 -1.7,1.7 h -10 c -1,0 -1.7,-0.8 -1.7,-1.7 v -9.8 c 0,-1 0.8,-1.7 1.7,-1.7 h 10 c 1,0 1.7,0.8 1.7,1.7 z"
             id="path262" />
          <path
             class="st2"
             d="m 324.5,297.9 c 0,0 0,-3.7 0,-4.7 0,-0.1 -0.1,-0.3 -0.3,-0.3 h -0.6 l -3.3,0.4 -0.6,0.1 c -0.1,0 -0.2,0.1 -0.2,0.3 v 3.7 c -0.2,-0.1 -0.4,-0.1 -0.6,0 -0.7,0.1 -1.3,0.6 -1.2,1.2 0.1,0.6 0.7,1 1.5,0.8 0.7,-0.1 1.3,-0.6 1.2,-1.2 0,0 0,0 0,0 v 0 -3.1 l 3.3,-0.4 v 2.4 c -0.2,0 -0.4,-0.1 -0.6,0 -0.7,0.1 -1.3,0.6 -1.2,1.2 0.1,0.6 0.7,0.9 1.5,0.8 0.6,-0.1 1.2,-0.6 1.1,-1.2 z"
             id="path264" />
        </g>
        <g
           class="st13"
           id="g272">
          <path
             class="st20"
             d="m 292.2,329.2 c 0,1 -0.8,1.7 -1.7,1.7 h -10 c -1,0 -1.7,-0.8 -1.7,-1.7 v -9.8 c 0,-1 0.8,-1.7 1.7,-1.7 h 10 c 1,0 1.7,0.8 1.7,1.7 z"
             id="path268" />
          <path
             class="st2"
             d="m 288.4,326.1 c 0,0 0,-3.7 0,-4.7 0,-0.1 -0.1,-0.3 -0.3,-0.3 h -0.6 l -3.3,0.4 -0.6,0.1 c -0.1,0 -0.2,0.1 -0.2,0.3 v 3.7 c -0.2,0 -0.4,-0.1 -0.6,0 -0.7,0.1 -1.3,0.6 -1.2,1.2 0.1,0.6 0.7,0.9 1.5,0.9 0.7,-0.1 1.3,-0.6 1.2,-1.2 0,0 0,0 0,0 v 0 -3.1 l 3.3,-0.4 v 2.4 c -0.2,0 -0.4,-0.1 -0.6,0 -0.7,0.1 -1.3,0.6 -1.2,1.2 0.1,0.6 0.7,0.9 1.5,0.8 0.7,-0.2 1.2,-0.8 1.1,-1.3 z"
             id="path270" />
        </g>
        <g
           class="st13"
           id="g278">
          <path
             class="st21"
             d="m 328.3,269.7 c 0,1 -0.8,1.7 -1.7,1.7 h -10 c -1,0 -1.7,-0.8 -1.7,-1.7 v -9.8 c 0,-1 0.8,-1.7 1.7,-1.7 h 10 c 1,0 1.7,0.8 1.7,1.7 z"
             id="path274" />
          <path
             class="st2"
             d="m 325.7,267.3 h -1.4 c 0.7,-0.7 1.1,-1.6 1.1,-2.6 0,-2 -1.7,-3.7 -3.7,-3.7 -2,0 -3.7,1.7 -3.7,3.7 0,2 1.7,3.7 3.7,3.7 0.9,0 1.7,-0.3 2.4,-0.9 h 1.7 v -0.2 z m -5.9,-1.6 c -0.5,0 -0.9,-0.4 -0.9,-0.9 0,-0.5 0.4,-0.9 0.9,-0.9 0.5,0 0.9,0.4 0.9,0.9 0,0.5 -0.4,0.9 -0.9,0.9 z m 1.9,2.1 c -0.5,0 -0.9,-0.4 -0.9,-0.9 0,-0.5 0.4,-0.9 0.9,-0.9 0.5,0 0.9,0.4 0.9,0.9 0,0.5 -0.4,0.9 -0.9,0.9 z m 0,-4.2 c -0.5,0 -0.9,-0.4 -0.9,-0.9 0,-0.5 0.4,-0.9 0.9,-0.9 0.5,0 0.9,0.4 0.9,0.9 0,0.5 -0.4,0.9 -0.9,0.9 z m 1.3,1.2 c 0,-0.5 0.4,-0.9 0.9,-0.9 0.5,0 0.9,0.4 0.9,0.9 0,0.5 -0.4,0.9 -0.9,0.9 -0.5,0 -0.9,-0.4 -0.9,-0.9 z m -1.3,0.5 c -0.3,0 -0.6,-0.2 -0.6,-0.6 0,-0.3 0.2,-0.6 0.6,-0.6 0.3,0 0.6,0.2 0.6,0.6 -0.1,0.3 -0.3,0.6 -0.6,0.6 z"
             id="path276" />
        </g>
      </g>
    </g>
    <g
       id="g1166"
       style="display:inline"
       transform="matrix(1.0063576,0,0,1,-1.4236282,0)">
      <rect
         x="147.8"
         y="224.2"
         class="st1"
         width="194.3"
         height="9.6000004"
         id="rect22"
         style="display:inline" />
      <rect
         x="320.5"
         y="228"
         class="st2"
         width="10.1"
         height="0.60000002"
         id="rect106"
         style="display:inline" />
      <rect
         x="165.3"
         y="228.60001"
         class="st22"
         width="15.4"
         height="2.2"
         id="rect290"
         style="display:inline" />
      <g
         id="g294"
         style="display:inline">
        <path
           class="st4"
           d="m 159.9,227.5 v 0 c -0.5,-1 -1.5,-1.8 -2.7,-1.8 -1.5,0 -2.8,1.2 -2.9,2.7 -1,0.1 -1.9,0.9 -1.9,2 0,1.1 0.9,2 2,2 h 1.6 c 0.1,0 0.8,0 0.8,0 v -2.3 h -1 l 1.6,-1.9 1.6,1.9 h -1 v 2.3 h 2 c 1.3,0 2.3,-1 2.3,-2.3 v -0.3 c -0.1,-1.3 -1.2,-2.3 -2.4,-2.3 z"
           id="path292" />
      </g>
      <rect
         x="196.7"
         y="228"
         class="st2"
         width="4.6999998"
         height="0.60000002"
         id="rect308" />
      <rect
         x="201.8"
         y="228"
         class="st2"
         width="10.1"
         height="0.60000002"
         id="rect310" />
      <rect
         x="223.7"
         y="228"
         class="st2"
         width="10.1"
         height="0.60000002"
         id="rect312" />
      <rect
         x="243.3"
         y="228"
         class="st2"
         width="10.1"
         height="0.60000002"
         id="rect314" />
      <circle
         class="st10"
         cx="316.29999"
         cy="228.5"
         r="1.7"
         id="circle142" />
    </g>
  </g>
  <g
     id="g730"
     style="display:inline"
     transform="translate(-39.351211,-152.875)">
    <g
       id="NOTEBOOK_2_"
       style="display:inline">
      <g
         id="g306"
         style="display:inline">
        <g
           id="g296"
           style="display:inline">
          <path
             id="path6"
             style="display:inline"
             d="m 146.19922,209.25 c -3.7,0 -6.69922,2.99922 -6.69922,6.69922 v 136.20117 h 210.59961 v -138.5 c 0,-2.4 -1.90039,-4.40039 -4.40039,-4.40039 z m 4.25,7.80078 a 3,3 0 0 1 0.0508,0 h 189.32422 a 3,3 0 0 1 3,3 v 121 a 3,3 0 0 1 -3,3 H 150.5 a 3,3 0 0 1 -3,-3 v -121 a 3,3 0 0 1 2.94922,-3 z"
             transform="translate(0,-0.05)" />
          <path
             class="st2"
             d="M 365.1,351.8 H 258.9 c -11.8,0 -26.1,0 -34.2,0 H 118.4 v 7 h 246.8 v -7 z"
             id="path10" />
          <path
             class="st1"
             d="m 118.4,358.7 v 0.1 c 0,0 2.2,5.7 6.4,5.7 h 214.4 c 23.3,0 24.8,-2.6 26,-5.7 v -0.1 z"
             id="path12" />
          <path
             class="st1"
             d="m 227.3,356.7 c 0,0.4 0.3,0.8 0.8,0.8 h 27.3 c 0.4,0 0.8,-0.3 0.8,-0.8 v -0.8 c 0,-0.4 -0.3,-0.8 -0.8,-0.8 h -27.3 c -0.4,0 -0.8,0.3 -0.8,0.8 z"
             id="path14" />
        </g>
      </g>
    </g>
    <g
       id="ICONS_3_"
       style="display:inline">
      <g
         id="g339"
         style="display:inline">
        <path
           class="st2"
           d="m 384.8,279 c -1.1,-0.3 -1.9,-0.8 -2.6,-1.3 l 0.7,-0.8 c 0.5,0.5 1.3,0.8 2.2,1.1 z"
           id="path333" />
        <path
           class="st2"
           d="m 348.4,288.3 c -0.7,-1.6 -1.4,-3.3 -2,-5.2 l 1,-0.3 c 0.6,1.8 1.2,3.5 1.9,5 z m 42,-9 -0.1,-1.1 c 1.7,-0.1 3.5,-0.5 5.2,-1 l 0.3,1 c -1.8,0.6 -3.7,1 -5.4,1.1 z M 345,277.8 c -0.4,-1.7 -0.7,-3.5 -0.9,-5.4 l 1.1,-0.1 c 0.2,1.8 0.5,3.6 0.9,5.3 z m 56,-1.5 -0.5,-1 c 1.8,-0.9 3.2,-1.9 4.4,-2.9 l 0.7,0.8 c -1.1,1.1 -2.7,2.2 -4.6,3.1 z m 10.2,-8 -0.1,-1.1 c 1.8,-0.1 3.6,-0.3 5.3,-0.7 l 0.2,1.1 c -1.6,0.3 -3.5,0.6 -5.4,0.7 z m -2.7,-0.1 -1.1,-0.1 c 0,-0.1 0,-0.2 0,-0.3 0,-0.4 0,-0.8 0,-1.3 0,-0.6 0,-1.3 0,-2 0,-0.6 0,-1.2 0,-1.7 l 1.1,-0.1 c 0,0.6 0.1,1.1 0.1,1.8 0,0.7 0,1.4 0,2 0,0.5 0,0.9 0,1.3 -0.1,0.1 -0.1,0.3 -0.1,0.4 z m -2.8,0 c -2,-0.2 -3.9,-0.5 -5.5,-1 l 0.3,-1 c 1.5,0.5 3.3,0.8 5.2,1 z m -62,-1.3 c -0.1,-1.8 -0.2,-3.6 -0.2,-5.5 h 1.1 c 0,1.8 0.1,3.7 0.2,5.4 z m 78.3,-1 -0.4,-1 c 0.2,-0.1 0.4,-0.2 0.6,-0.3 1.4,-0.7 2.7,-1.5 3.9,-2.5 l 0.7,0.8 c -1.3,1 -2.7,1.9 -4.2,2.7 -0.2,0.1 -0.4,0.2 -0.6,0.3 z m -26.6,-1.8 c -0.1,-0.2 -0.2,-0.5 -0.3,-0.7 -0.1,-0.4 -0.2,-0.7 -0.2,-1.1 0,-1.2 0.6,-2.6 1.6,-3.8 l 0.8,0.7 c -0.9,1 -1.4,2.2 -1.4,3.1 0,0.3 0,0.5 0.1,0.8 0.1,0.2 0.1,0.3 0.2,0.5 z m 35.1,-5.3 -0.9,-0.6 c 1,-1.4 1.8,-3 2.5,-4.7 l 1,0.4 c -0.7,1.8 -1.6,3.5 -2.6,4.9 z M 406,257.9 c -0.9,-1.2 -2.4,-1.6 -4.4,-1.2 l -0.2,-1.1 c 2.4,-0.5 4.3,0 5.5,1.6 z m -61.3,-1.9 -1.1,-0.1 c 0.1,-1.8 0.2,-3.6 0.4,-5.5 l 1.1,0.1 c -0.2,1.9 -0.3,3.7 -0.4,5.5 z m 90.1,-7.4 -1.1,-0.2 c 0.4,-1.7 0.6,-3.5 0.7,-5.3 l 1.1,0.1 c -0.1,1.9 -0.4,3.7 -0.7,5.4 z m -89.1,-3.4 -1.1,-0.1 c 0.3,-1.8 0.5,-3.6 0.9,-5.4 l 1.1,0.2 c -0.3,1.7 -0.6,3.5 -0.9,5.3 z m 88.8,-7.5 c -0.1,-1.8 -0.3,-3.6 -0.5,-5.4 l 1.1,-0.2 c 0.3,1.8 0.5,3.7 0.5,5.5 z m -86.8,-3.2 -1.1,-0.2 c 0.4,-1.8 0.9,-3.6 1.4,-5.3 l 1,0.3 c -0.4,1.7 -0.9,3.4 -1.3,5.2 z m 85.2,-7.5 c -0.4,-1.7 -1,-3.5 -1.6,-5.2 l 1,-0.4 c 0.6,1.7 1.1,3.5 1.6,5.3 z m -82.2,-2.9 -1,-0.4 c 0.6,-1.8 1.3,-3.5 2,-5.1 l 1,0.4 c -0.7,1.6 -1.3,3.3 -2,5.1 z m 78.6,-7.2 c -0.8,-1.7 -1.7,-3.2 -2.6,-4.7 l 0.9,-0.6 c 0.9,1.5 1.8,3.1 2.6,4.8 z m -74.2,-2.6 -0.9,-0.5 c 0.9,-1.6 1.9,-3.2 3,-4.6 l 0.9,0.6 c -1.1,1.3 -2,2.9 -3,4.5 z m 68.5,-6.5 c -1.2,-1.4 -2.4,-2.7 -3.7,-3.8 l 0.7,-0.8 c 1.3,1.1 2.6,2.5 3.9,4 z m -62.1,-2.3 -0.8,-0.7 c 1.3,-1.4 2.6,-2.7 4,-3.8 l 0.7,0.8 c -1.4,1.1 -2.7,2.4 -3.9,3.7 z m 54,-4.7 c -1.5,-1 -3.1,-1.9 -4.7,-2.7 l 0.5,-1 c 1.7,0.8 3.3,1.7 4.8,2.7 z m -45.9,-2.2 -0.6,-0.9 c 1.6,-1 3.2,-1.9 4.9,-2.6 l 0.4,1 c -1.5,0.7 -3.1,1.6 -4.7,2.5 z m 36.3,-2.6 c -1.7,-0.6 -3.4,-1.2 -5.1,-1.6 l 0.3,-1 c 1.8,0.4 3.5,1 5.3,1.6 z m -26.5,-1.7 -0.3,-1 c 1.8,-0.5 3.6,-0.8 5.4,-1.1 l 0.1,1.1 c -1.7,0.2 -3.5,0.5 -5.2,1 z m 16,-1 c -1.8,-0.2 -3.6,-0.4 -5.4,-0.4 v -1.1 c 1.8,0 3.7,0.1 5.5,0.4 z"
           id="path335" />
        <path
           class="st2"
           d="m 352.9,295.3 c -0.6,-0.7 -1.2,-1.4 -1.7,-2.2 l 0.9,-0.6 c 0.5,0.7 1.1,1.4 1.6,2.1 z"
           id="path337" />
      </g>
      <g
         id="g323"
         style="display:inline"
         transform="translate(0,-4.9)">
        <path
           class="st2"
           d="m 154.6,166.1 c 0,0 -1,-0.2 -2.6,-0.3 l 0.1,-1.1 c 1.7,0.1 2.7,0.3 2.7,0.3 z"
           id="path317" />
        <path
           class="st2"
           d="m 247.5,225.3 c -1.5,0 -3.1,-0.1 -4.6,-0.2 L 243,224 c 1.8,0.1 3.6,0.2 5.3,0.2 v 1.1 c -0.2,0 -0.5,0 -0.8,0 z m 6.3,-0.3 -0.1,-1.1 c 1.8,-0.2 3.6,-0.5 5.3,-0.8 l 0.2,1.1 c -1.8,0.3 -3.6,0.6 -5.4,0.8 z m -16.3,-0.5 c -1.9,-0.3 -3.7,-0.6 -5.3,-1 l 0.2,-1.1 c 1.6,0.4 3.4,0.7 5.3,1 z m 26.9,-1.8 -0.3,-1 c 1.7,-0.6 3.4,-1.2 5,-2 l 0.5,1 c -1.7,0.7 -3.4,1.4 -5.2,2 z m -37.5,-0.6 c -1.9,-0.6 -3.6,-1.4 -5,-2.2 l 0.5,-0.9 c 1.4,0.8 3,1.5 4.9,2.1 z m 47.4,-4 -0.6,-0.9 c 1.5,-1 3,-2 4.3,-3.2 l 0.7,0.8 c -1.3,1.2 -2.8,2.3 -4.4,3.3 z m -56.8,-1.7 c -1.1,-1.4 -1.6,-3 -1.6,-4.7 0,-0.2 0,-0.5 0,-0.7 l 1.1,0.1 c 0,0.2 0,0.4 0,0.6 0,1.4 0.5,2.8 1.4,4 z m 65,-5.6 -0.8,-0.7 c 1.1,-1.4 2.1,-2.9 2.8,-4.5 l 1,0.4 c -0.9,1.7 -1.8,3.3 -3,4.8 z m -149.4,-3.2 c -1.9,-0.1 -3.8,-0.2 -5.4,-0.4 l 0.1,-1.1 c 1.6,0.2 3.4,0.3 5.3,0.4 z m 5.4,0 v -1.1 c 1.7,-0.1 3.5,-0.2 5.4,-0.3 l 0.1,1.1 c -2,0.1 -3.8,0.3 -5.5,0.3 z m 10.8,-0.9 -0.1,-1.1 c 1.7,-0.2 3.5,-0.5 5.3,-0.8 l 0.2,1.1 c -1.8,0.3 -3.7,0.6 -5.4,0.8 z m -27.1,-0.5 c -1.9,-0.5 -3.7,-1.2 -5.1,-2 l 0.5,-0.9 c 1.4,0.8 3,1.4 4.9,1.9 z m 37.8,-1.2 -0.2,-1.1 c 1.8,-0.3 3.5,-0.7 5.3,-1.1 l 0.2,1.1 c -1.7,0.4 -3.5,0.8 -5.3,1.1 z m 10.6,-2.3 -0.3,-1 c 0.9,-0.2 1.4,-0.4 1.6,-0.4 0.3,-0.2 1.4,-0.8 3.1,-1.8 l 0.5,0.9 c -2,1.1 -3.2,1.8 -3.2,1.8 h -0.1 -0.1 c 0.2,0 -0.4,0.2 -1.5,0.5 z m 116.3,-1.9 -1.1,-0.1 c 0.1,-0.7 0.1,-1.4 0.1,-2.1 0,-1 -0.1,-2 -0.3,-3.1 l 1.1,-0.2 c 0.2,1.1 0.3,2.2 0.3,3.3 0.1,0.7 0,1.4 -0.1,2.2 z m -174.1,-0.2 c -1.1,-1.5 -1.8,-3.2 -2.1,-5.2 l 1.1,-0.2 c 0.3,1.8 0.9,3.3 1.9,4.7 z m 67.6,-2.8 -0.5,-1 c 1.6,-0.8 3.2,-1.7 4.8,-2.5 l 0.5,1 c -1.6,0.8 -3.3,1.6 -4.8,2.5 z m 9.6,-4.9 -0.5,-1 c 1.6,-0.8 3.3,-1.6 4.9,-2.3 l 0.4,1 c -1.5,0.8 -3.2,1.6 -4.8,2.3 z m 93.9,-2.3 c -0.8,-1.5 -1.9,-2.9 -3.1,-4.2 l 0.8,-0.7 c 1.3,1.4 2.4,2.9 3.3,4.4 z m -172.2,-0.6 -1.1,-0.1 c 0.1,-1.9 0.4,-3.7 0.8,-5.4 l 1,0.3 c -0.4,1.6 -0.6,3.4 -0.7,5.2 z m 88.2,-1.5 -0.4,-1 c 1.7,-0.7 3.4,-1.4 5,-2.1 l 0.4,1 c -1.7,0.7 -3.4,1.3 -5,2.1 z m 10,-4.1 -0.4,-1 c 1.7,-0.6 3.4,-1.3 5.1,-1.8 l 0.4,1 c -1.7,0.6 -3.4,1.2 -5.1,1.8 z m 66.9,-1.5 c -1.4,-1 -2.9,-2 -4.5,-2.8 l 0.5,-0.9 c 1.7,0.9 3.2,1.9 4.6,2.9 z m -56.7,-2 -0.3,-1 c 1.8,-0.5 3.5,-1.1 5.2,-1.5 l 0.3,1 c -1.8,0.5 -3.5,1 -5.2,1.5 z m -105.8,-1 -1,-0.5 c 0.8,-1.6 1.9,-3.2 3.1,-4.6 l 0.8,0.7 c -1.1,1.3 -2.1,2.8 -2.9,4.4 z m 116.1,-1.8 -0.2,-1 c 1.8,-0.4 3.6,-0.8 5.3,-1.1 l 0.2,1.1 c -1.7,0.2 -3.5,0.5 -5.3,1 z m 37,-0.3 c -1.6,-0.6 -3.3,-1.1 -5.1,-1.5 l 0.2,-1.1 c 1.8,0.4 3.6,0.9 5.3,1.5 z M 241,176.1 240.9,175 c 1.8,-0.2 3.7,-0.4 5.4,-0.6 l 0.1,1.1 c -1.8,0.2 -3.6,0.3 -5.4,0.6 z m 16,-0.5 c -1.7,-0.2 -3.5,-0.2 -5.3,-0.3 v -1.1 c 1.9,0 3.7,0.1 5.4,0.3 z m -135.9,-3.6 -0.6,-0.9 c 1.4,-1 3,-1.9 4.8,-2.7 l 0.4,1 c -1.7,0.7 -3.2,1.6 -4.6,2.6 z m 9.6,-4.5 -0.3,-1 c 1.7,-0.5 3.5,-0.9 5.3,-1.2 l 0.2,1.1 c -1.8,0.3 -3.6,0.7 -5.2,1.1 z m 10.5,-1.8 -0.1,-1.1 c 1.6,-0.1 3.2,-0.2 4.9,-0.2 0.2,0 0.4,0 0.5,0 v 1.1 c -0.2,0 -0.4,0 -0.5,0 -1.6,0.1 -3.2,0.1 -4.8,0.2 z"
           id="path319" />
        <path
           class="st2"
           d="m 218.8,206.4 -0.9,-0.6 c 0.9,-1.3 1.7,-2.1 1.8,-2.2 l 0.7,0.8 c 0.1,0 -0.7,0.8 -1.6,2 z"
           id="path321" />
      </g>
      <g
         id="g331"
         style="display:inline">
        <path
           class="st2"
           d="m 81.5,259 c -0.4,-0.3 -1.1,-0.9 -1.5,-0.6 l -0.4,-0.8 c 0.7,-0.4 1.6,-0.1 2.6,0.8 z"
           id="path325" />
        <path
           class="st2"
           d="m 133.2,339.9 c -1.3,0 -2.5,-0.2 -3.7,-0.6 l 0.3,-0.9 c 1.4,0.5 2.9,0.7 4.3,0.5 l 0.1,0.9 c -0.3,0.1 -0.7,0.1 -1,0.1 z m 5.5,-1.3 -0.4,-0.8 c 1.3,-0.6 2.5,-1.4 3.8,-2.4 l 0.6,0.7 c -1.3,1 -2.6,1.9 -4,2.5 z m -13.4,-1.5 c -1.3,-0.9 -2.5,-1.9 -3.6,-3 l 0.7,-0.6 c 1,1.1 2.2,2 3.4,2.9 z m 20.7,-4.4 -0.7,-0.6 c 0.9,-1.1 1.8,-2.3 2.7,-3.7 l 0.8,0.5 c -0.9,1.4 -1.8,2.7 -2.8,3.8 z m -27.1,-2.4 c -0.8,-1.3 -1.4,-2.7 -2,-4.3 l 0.9,-0.3 c 0.5,1.5 1.1,2.8 1.9,4.1 z m 32.1,-5.4 -0.8,-0.4 c 0.6,-1.3 1.2,-2.8 1.8,-4.2 l 0.9,0.3 c -0.6,1.5 -1.2,2.9 -1.9,4.3 z m -35.2,-3.4 c -0.2,-1.5 -0.4,-3 -0.4,-4.6 h 0.9 c 0,1.6 0.2,3.1 0.4,4.5 z m 38.4,-5.4 -0.9,-0.2 c 0.4,-1.5 0.7,-3 1,-4.5 l 0.9,0.2 c -0.3,1.5 -0.6,3.1 -1,4.5 z m -67.3,-0.8 -0.1,-0.9 c 1.6,-0.1 3,-0.5 4.2,-1.2 l 0.5,0.8 c -1.3,0.7 -2.9,1.2 -4.6,1.3 z m -4.7,-0.5 c -1.5,-0.5 -2.9,-1.3 -4.1,-2.4 l 0.6,-0.7 c 1.1,1 2.4,1.8 3.8,2.2 z m 34.2,-2.5 -0.9,-0.1 c 0.1,-1.5 0.3,-3.1 0.6,-4.6 l 0.9,0.2 c -0.2,1.5 -0.4,3 -0.6,4.5 z m -21.5,-1.7 -0.8,-0.5 c 0.7,-1.1 1.2,-2.5 1.6,-4.2 l 0.9,0.2 c -0.5,1.8 -1,3.3 -1.7,4.5 z M 75.3,308.5 C 74.7,307.1 74.2,305.6 74,304 l 0.9,-0.1 c 0.2,1.5 0.6,3 1.2,4.3 z m 80.5,-1.5 -0.9,-0.1 c 0.1,-1.5 0.2,-2.9 0.2,-4.4 v -0.2 h 0.9 v 0.2 c -0.1,1.5 -0.1,3 -0.2,4.5 z M 97,301.5 h -0.9 c 0,-0.3 0,-0.6 0,-0.9 0,-1.2 -0.1,-2.4 -0.2,-3.7 l 0.9,-0.1 c 0.1,1.3 0.2,2.6 0.2,3.8 0,0.3 0,0.6 0,0.9 z M 74.9,299.4 74,299.3 c 0.2,-1.6 0.6,-3.1 1.2,-4.6 L 76,295 c -0.6,1.4 -1,2.9 -1.1,4.4 z m 79.9,-1.6 c -0.1,-1.5 -0.3,-3 -0.6,-4.5 l 0.9,-0.2 c 0.3,1.5 0.5,3.1 0.6,4.6 z m -59.5,-5.4 c -0.2,-1.4 -0.6,-3 -0.9,-4.5 l 0.9,-0.2 c 0.4,1.6 0.7,3.1 0.9,4.5 z m -17.1,-1.2 -0.8,-0.5 c 0.9,-1.2 1.8,-2.4 2.9,-3.6 l 0.7,0.6 c -1,1.1 -1.9,2.3 -2.8,3.5 z m 74.9,-2.4 c -0.4,-1.5 -0.9,-2.9 -1.4,-4.3 l 0.9,-0.3 c 0.6,1.4 1.1,2.9 1.5,4.4 z m -68.8,-4.5 -0.6,-0.7 c 1.1,-1 2.3,-2.1 3.5,-3.1 l 0.6,0.7 c -1.3,1.1 -2.4,2.1 -3.5,3.1 z m 8.9,-0.8 c -0.4,-1.4 -0.9,-2.9 -1.4,-4.4 l 0.9,-0.3 c 0.5,1.5 1,3 1.4,4.4 z m 56.6,-3.1 c -0.7,-1.4 -1.4,-2.7 -2.2,-4 l 0.8,-0.5 c 0.8,1.3 1.6,2.7 2.3,4 z m -58.4,-1.8 -0.5,-0.8 c 1.2,-0.9 2.5,-1.8 3.8,-2.6 l 0.5,0.8 c -1.3,0.8 -2.6,1.7 -3.8,2.6 z m -1.1,-3.8 c -0.6,-1.4 -1.2,-2.9 -1.8,-4.2 l 0.8,-0.4 c 0.6,1.4 1.2,2.8 1.8,4.3 z m 8.8,-1.1 -0.5,-0.8 c 1.3,-0.8 2.7,-1.5 4.1,-2.1 l 0.4,0.8 c -1.3,0.6 -2.7,1.3 -4,2.1 z m 45.9,-1 c -0.5,-0.7 -1.1,-1.4 -1.6,-2 -0.4,-0.5 -0.9,-0.9 -1.4,-1.4 l 0.6,-0.7 c 0.5,0.5 1,0.9 1.4,1.5 0.6,0.7 1.1,1.4 1.7,2 z m -37.7,-3 -0.4,-0.9 c 1.4,-0.6 2.9,-1.2 4.3,-1.7 l 0.3,0.9 c -1.3,0.5 -2.7,1.1 -4.2,1.7 z m 30.9,-2.9 c -1.3,-0.6 -2.7,-1.1 -4.3,-1.4 l 0.2,-0.9 c 1.6,0.3 3.1,0.8 4.5,1.5 z m -22.2,-0.1 -0.2,-0.9 c 1.5,-0.4 3.1,-0.8 4.5,-1 l 0.2,0.9 c -1.5,0.2 -3,0.6 -4.5,1 z m -29.5,-0.2 c -0.8,-1.5 -1.5,-2.8 -2.3,-4 L 85,262 c 0.7,1.2 1.5,2.5 2.3,4 z m 38.5,-1.5 -0.1,-0.9 c 1.6,-0.1 3.2,-0.2 4.7,-0.1 v 0.9 c -1.5,-0.1 -3.1,0 -4.6,0.1 z"
           id="path327" />
        <path
           class="st2"
           d="m 118.1,303.3 -0.9,-0.2 c 0.4,-1.4 0.7,-2.2 0.7,-2.2 l 0.9,0.3 c -0.1,-0.1 -0.4,0.7 -0.7,2.1 z"
           id="path329" />
      </g>
      <g
         id="g425"
         style="display:none">
        <g
           id="g355"
           style="display:inline">
          <rect
             x="137.7"
             y="162.8"
             class="st2"
             width="29.799999"
             height="33.400002"
             id="rect341" />
          <g
             id="g345"
             style="display:none">
            <path
               class="st17"
               d="m 162.1,186.3 c 0,1.3 -1.1,2.4 -2.4,2.4 h -14 c -1.3,0 -2.4,-1.1 -2.4,-2.4 v -13.7 c 0,-1.3 1.1,-2.4 2.4,-2.4 h 14 c 1.3,0 2.4,1.1 2.4,2.4 z"
               id="path343" />
          </g>
          <g
             id="g353"
             style="display:none">
            <path
               class="st2"
               d="m 148.3,179.8 v 1.9 h -0.4 v -4.6 h 1.6 c 0.5,0 0.9,0.1 1.1,0.4 0.3,0.2 0.4,0.6 0.4,1 0,0.4 -0.1,0.7 -0.4,1 -0.3,0.2 -0.6,0.4 -1.1,0.4 h -1.2 z m 0,-0.3 h 1.2 c 0.4,0 0.7,-0.1 0.9,-0.3 0.2,-0.2 0.3,-0.4 0.3,-0.7 0,-0.3 -0.1,-0.5 -0.3,-0.7 -0.2,-0.2 -0.5,-0.3 -0.9,-0.3 h -1.2 z"
               id="path347" />
            <path
               class="st2"
               d="m 151.9,181.7 v -4.6 h 1.3 c 0.6,0 1,0.2 1.4,0.6 0.4,0.4 0.5,0.9 0.5,1.4 v 0.6 c 0,0.6 -0.2,1.1 -0.5,1.4 -0.4,0.4 -0.8,0.6 -1.4,0.6 z m 0.3,-4.2 v 3.9 h 1 c 0.5,0 0.8,-0.2 1.1,-0.5 0.3,-0.3 0.4,-0.7 0.4,-1.2 v -0.6 c 0,-0.5 -0.1,-0.9 -0.4,-1.2 -0.3,-0.3 -0.7,-0.5 -1.1,-0.5 h -1 z"
               id="path349" />
            <path
               class="st2"
               d="m 158.7,179.6 h -2.2 v 2.2 h -0.4 v -4.6 h 2.9 v 0.3 h -2.6 v 1.8 h 2.2 v 0.3 z"
               id="path351" />
          </g>
        </g>
        <g
           id="g371"
           style="display:none">
          <rect
             x="78"
             y="233.89999"
             class="st2"
             width="22.700001"
             height="27"
             id="rect357" />
          <g
             id="g361"
             style="display:none">
            <path
               class="st15"
               d="m 96.1,252.2 c 0,1 -0.8,1.7 -1.7,1.7 h -10 c -1,0 -1.7,-0.8 -1.7,-1.7 v -9.8 c 0,-1 0.8,-1.7 1.7,-1.7 h 10 c 1,0 1.7,0.8 1.7,1.7 z"
               id="path359" />
          </g>
          <g
             id="g369"
             style="display:none">
            <path
               class="st2"
               d="m 86.9,245.6 h 0.3 v 2.4 c 0,0.3 -0.1,0.5 -0.3,0.7 -0.2,0.2 -0.4,0.3 -0.7,0.3 -0.3,0 -0.6,-0.1 -0.7,-0.2 -0.2,-0.2 -0.3,-0.4 -0.3,-0.7 v 0 h 0.3 c 0,0.2 0.1,0.4 0.2,0.5 0.1,0.1 0.3,0.2 0.5,0.2 0.2,0 0.4,-0.1 0.5,-0.2 0.1,-0.1 0.2,-0.3 0.2,-0.5 z"
               id="path363" />
            <path
               class="st2"
               d="m 88.3,247.5 v 1.4 H 88 v -3.3 h 1.1 c 0.3,0 0.6,0.1 0.8,0.3 0.2,0.2 0.3,0.4 0.3,0.7 0,0.3 -0.1,0.5 -0.3,0.7 -0.2,0.2 -0.5,0.3 -0.8,0.3 h -0.8 z m 0,-0.3 h 0.9 c 0.3,0 0.5,-0.1 0.6,-0.2 0.1,-0.1 0.2,-0.3 0.2,-0.5 0,-0.2 -0.1,-0.4 -0.2,-0.5 -0.1,-0.1 -0.3,-0.2 -0.6,-0.2 h -0.9 z"
               id="path365" />
            <path
               class="st2"
               d="m 93.2,248.4 c -0.1,0.1 -0.2,0.2 -0.4,0.3 -0.2,0.1 -0.4,0.1 -0.7,0.1 -0.4,0 -0.7,-0.1 -0.9,-0.4 -0.2,-0.3 -0.4,-0.6 -0.4,-1 v -0.6 c 0,-0.4 0.1,-0.7 0.3,-1 0.2,-0.3 0.5,-0.4 0.9,-0.4 0.4,0 0.6,0.1 0.8,0.3 0.2,0.2 0.3,0.4 0.3,0.7 v 0 H 93 c 0,-0.2 -0.1,-0.4 -0.3,-0.5 -0.1,-0.1 -0.4,-0.2 -0.6,-0.2 -0.3,0 -0.5,0.1 -0.7,0.3 -0.2,0.2 -0.3,0.5 -0.3,0.8 v 0.6 c 0,0.3 0.1,0.6 0.3,0.8 0.2,0.2 0.4,0.3 0.7,0.3 0.2,0 0.4,0 0.6,-0.1 0.2,-0.1 0.3,-0.1 0.3,-0.2 v -0.9 h -0.9 v -0.2 h 1.1 z"
               id="path367" />
          </g>
        </g>
        <g
           id="g381"
           style="display:inline">
          <rect
             x="360.10001"
             y="244"
             class="st2"
             width="28.799999"
             height="32.200001"
             id="rect373"
             style="display:inline" />
          <g
             id="g379"
             style="display:none">
            <path
               class="st20"
               d="m 384.3,266.9 c 0,1.3 -1.1,2.4 -2.4,2.4 h -14 c -1.3,0 -2.4,-1.1 -2.4,-2.4 v -13.7 c 0,-1.3 1.1,-2.4 2.4,-2.4 h 14 c 1.3,0 2.4,1.1 2.4,2.4 z"
               id="path375" />
            <path
               class="st2"
               d="m 378.9,262.5 c 0,0 0,-5.2 0,-6.6 0,-0.2 -0.2,-0.4 -0.4,-0.4 h -0.8 l -4.6,0.5 -0.9,0.1 c -0.2,0 -0.3,0.2 -0.3,0.4 v 5.1 c -0.3,-0.1 -0.6,-0.1 -0.9,-0.1 -1,0.1 -1.8,0.9 -1.7,1.7 0.1,0.8 1,1.3 2,1.2 1,-0.1 1.8,-0.9 1.7,-1.7 0,0 0,0 0,0 v 0 -4.3 l 4.6,-0.5 v 3.4 c -0.3,-0.1 -0.6,-0.1 -0.9,0 -1,0.1 -1.8,0.9 -1.7,1.7 0.1,0.8 1,1.3 2,1.2 1.3,-0.1 2.1,-0.9 1.9,-1.7 z"
               id="path377" />
          </g>
        </g>
        <g
           id="g395"
           style="display:inline">
          <rect
             x="139.5"
             y="299.5"
             class="st12"
             width="20.9"
             height="42.099998"
             id="rect192"
             style="display:inline" />
          <rect
             x="115.1"
             y="297.60001"
             class="st2"
             width="37.599998"
             height="42.099998"
             id="rect383" />
          <g
             id="g393"
             style="display:none">
            <path
               class="st19"
               d="m 145.7,327.2 c 0,1.6 -1.3,3 -3,3 h -17.4 c -1.6,0 -3,-1.3 -3,-3 v -17 c 0,-1.6 1.3,-3 3,-3 h 17.4 c 1.6,0 3,1.3 3,3 z"
               id="path385" />
            <g
               id="g391">
              <path
                 class="st2"
                 d="m 134.8,315.8 c -1.4,0 -2.5,1.1 -2.5,2.5 0,1.4 1.1,2.5 2.5,2.5 1.4,0 2.5,-1.1 2.5,-2.5 0.1,-1.3 -1.1,-2.5 -2.5,-2.5 z"
                 id="path387" />
              <path
                 class="st2"
                 d="m 141.2,321.9 v -6.6 c 0,-1 -0.8,-1.8 -1.8,-1.8 h -1.3 l -0.6,-1.1 h -5.1 l -0.6,1.1 h -1.5 v -0.2 c 0,0 -0.3,-0.1 -1,-0.1 -0.7,0 -1.1,0.1 -1.1,0.1 v 0.3 c -1.1,0.2 -1.9,0.9 -1.9,1.7 v 6.6 c 0,1 0.8,1.8 1.8,1.8 h 11.4 c 1,0 1.7,-0.8 1.7,-1.8 z M 128.3,316 c -0.3,0 -0.5,-0.2 -0.5,-0.5 0,-0.3 0.2,-0.5 0.5,-0.5 0.3,0 0.5,0.2 0.5,0.5 -0.1,0.3 -0.3,0.5 -0.5,0.5 z m 6.5,6.5 c -2.3,0 -4.1,-1.9 -4.1,-4.1 0,-2.3 1.8,-4.1 4.1,-4.1 2.3,0 4.1,1.9 4.1,4.1 0.1,2.3 -1.8,4.1 -4.1,4.1 z"
                 id="path389" />
            </g>
          </g>
        </g>
        <g
           id="g405">
          <rect
             x="276.89999"
             y="133.10001"
             class="st2"
             width="25.9"
             height="29"
             id="rect397" />
          <g
             id="g403"
             style="display:none">
            <path
               class="st18"
               d="m 298.7,153.8 c 0,1.2 -1,2.2 -2.2,2.2 h -12.8 c -1.2,0 -2.2,-1 -2.2,-2.2 v -12.5 c 0,-1.2 1,-2.2 2.2,-2.2 h 12.8 c 1.2,0 2.2,1 2.2,2.2 z"
               id="path399" />
            <path
               class="st2"
               d="m 294.8,151 c -0.2,-0.6 -1.5,-4.8 -1.5,-4.8 v -0.1 l -3.9,-3.7 c -0.1,-0.1 -0.5,-0.4 -1.3,-0.1 -0.3,0.1 -0.5,0.3 -0.9,0.7 -0.1,0.1 -0.2,0.3 -0.4,0.4 -0.3,0.3 -0.6,0.6 -0.8,0.9 -0.1,0.1 -0.3,0.3 -0.4,0.4 -0.4,0.4 -0.7,0.8 -0.8,1.1 -0.3,0.6 0,1.1 0.2,1.2 l 3.9,3.7 5,1.2 c 0.1,0 0.5,0.2 0.8,-0.1 0.2,-0.3 0.2,-0.5 0.1,-0.8 z m -1.2,-1.7 -1.4,1.5 -2.7,-0.7 0.7,-0.4 c 0,0 0,0 0,0 0.2,-0.1 0.3,-0.1 0.7,-1.5 1.4,-0.5 1.5,-0.7 1.6,-0.9 l 0.3,-0.8 c 0.1,0.5 0.5,1.7 0.8,2.8 z m -6.2,-5.5 c 0.1,-0.1 0.2,-0.3 0.3,-0.4 0.3,-0.3 0.5,-0.5 0.6,-0.5 0.4,-0.1 0.6,0 0.6,0 l 3.3,3.1 -0.4,1 c -0.1,0.1 -0.4,0.2 -1.3,0.6 l -3.6,-3.4 c 0.2,-0.1 0.4,-0.3 0.5,-0.4 z m -1.9,2.6 c 0,0 -0.2,-0.1 0,-0.5 0.1,-0.2 0.5,-0.7 0.7,-0.9 0.1,-0.1 0.2,-0.2 0.4,-0.4 l 3.7,3.4 c -0.2,0.7 -0.3,0.9 -0.3,1 l -0.9,0.5 z m 8.7,4.8 -1.2,-0.3 0.9,-0.9 c 0.1,0.6 0.2,1 0.3,1.2 z"
               id="path401" />
          </g>
        </g>
        <g
           id="g423">
          <rect
             x="225.8"
             y="205.5"
             class="st25"
             width="21.5"
             height="19.4"
             id="rect407"
             style="display:inline" />
          <g
             id="g421"
             style="display:inline">
            <polygon
               class="st2"
               points="247,215.2 247,186.8 220.3,186.8 220.3,218.9 243.8,218.9 "
               id="polygon409" />
            <g
               id="g419"
               style="display:none">
              <polygon
                 class="st26"
                 points="237.8,208.2 241.8,208.2 241.8,207.7 238.2,207.7 237.7,208.3 "
                 id="polygon411" />
              <g
                 id="g415">
                <path
                   class="st26"
                   d="m 233.2,210 c -4.3,0 -7.8,-3.5 -7.8,-7.8 0,-4.3 3.5,-7.8 7.8,-7.8 4.3,0 7.8,3.5 7.8,7.8 0,4.3 -3.5,7.8 -7.8,7.8 z m 1.9,-12.1 c 0,-1 -0.8,-1.9 -1.9,-1.9 -1,0 -1.9,0.8 -1.9,1.9 0,1 0.8,1.9 1.9,1.9 1,0 1.9,-0.8 1.9,-1.9 z m 0,8.9 c 0,-1 -0.8,-1.9 -1.9,-1.9 -1,0 -1.9,0.8 -1.9,1.9 0,1 0.8,1.9 1.9,1.9 1,0 1.9,-0.9 1.9,-1.9 z m -6,-6.3 c -1,0 -1.9,0.8 -1.9,1.9 0,1 0.8,1.9 1.9,1.9 1,0 1.9,-0.8 1.9,-1.9 0,-1.1 -0.9,-1.9 -1.9,-1.9 z m 8.7,0 c -1,0 -1.9,0.8 -1.9,1.9 0,1 0.8,1.9 1.9,1.9 1,0 1.9,-0.8 1.9,-1.9 0,-1.1 -0.9,-1.9 -1.9,-1.9 z"
                   id="path413" />
              </g>
              <path
                 class="st26"
                 d="m 234.4,202.2 c 0,-0.6 -0.5,-1.2 -1.2,-1.2 -0.7,0 -1.2,0.5 -1.2,1.2 0,0.7 0.5,1.2 1.2,1.2 0.6,0 1.2,-0.6 1.2,-1.2 z"
                 id="path417" />
            </g>
          </g>
        </g>
      </g>
    </g>
    <g
       id="TABLET_2_">
      <g
         class="st13"
         id="g476">
        <g
           class="st27"
           id="g430">
          <path
             class="st20"
             d="m 350.2,320.3 c 0,0.3 -0.2,0.5 -0.5,0.5 h -2.9 c -0.3,0 -0.5,-0.2 -0.5,-0.5 v -3.1 c 0,-0.3 0.2,-0.5 0.5,-0.5 h 2.9 c 0.3,0 0.5,0.2 0.5,0.5 z"
             id="path428" />
        </g>
        <g
           class="st27"
           id="g434">
          <path
             class="st16"
             d="m 360.8,320.3 c 0,0.3 -0.2,0.5 -0.5,0.5 h -2.9 c -0.3,0 -0.5,-0.2 -0.5,-0.5 v -3.1 c 0,-0.3 0.2,-0.5 0.5,-0.5 h 2.9 c 0.3,0 0.5,0.2 0.5,0.5 z"
             id="path432" />
        </g>
        <g
           class="st27"
           id="g438">
          <path
             class="st18"
             d="m 371.7,320.3 c 0,0.3 -0.2,0.5 -0.5,0.5 h -2.9 c -0.3,0 -0.5,-0.2 -0.5,-0.5 v -3.1 c 0,-0.3 0.2,-0.5 0.5,-0.5 h 2.9 c 0.3,0 0.5,0.2 0.5,0.5 z"
             id="path436" />
        </g>
        <g
           class="st27"
           id="g442">
          <path
             class="st19"
             d="m 350.2,334.6 c 0,0.3 -0.2,0.5 -0.5,0.5 h -2.9 c -0.3,0 -0.5,-0.2 -0.5,-0.5 v -3.1 c 0,-0.3 0.2,-0.5 0.5,-0.5 h 2.9 c 0.3,0 0.5,0.2 0.5,0.5 z"
             id="path440" />
        </g>
        <g
           class="st27"
           id="g446">
          <path
             class="st16"
             d="m 360.8,334.6 c 0,0.3 -0.2,0.5 -0.5,0.5 h -2.9 c -0.3,0 -0.5,-0.2 -0.5,-0.5 v -3.1 c 0,-0.3 0.2,-0.5 0.5,-0.5 h 2.9 c 0.3,0 0.5,0.2 0.5,0.5 z"
             id="path444" />
        </g>
        <g
           class="st27"
           id="g450">
          <path
             class="st14"
             d="m 371.7,334.6 c 0,0.3 -0.2,0.5 -0.5,0.5 h -2.9 c -0.3,0 -0.5,-0.2 -0.5,-0.5 v -3.1 c 0,-0.3 0.2,-0.5 0.5,-0.5 h 2.9 c 0.3,0 0.5,0.2 0.5,0.5 z"
             id="path448" />
        </g>
        <g
           class="st27"
           id="g454">
          <path
             class="st20"
             d="m 350.2,349.7 c 0,0.3 -0.2,0.5 -0.5,0.5 h -2.9 c -0.3,0 -0.5,-0.2 -0.5,-0.5 v -3.1 c 0,-0.3 0.2,-0.5 0.5,-0.5 h 2.9 c 0.3,0 0.5,0.2 0.5,0.5 z"
             id="path452" />
        </g>
        <g
           class="st27"
           id="g458">
          <path
             class="st14"
             d="m 360.8,349.7 c 0,0.3 -0.2,0.5 -0.5,0.5 h -2.9 c -0.3,0 -0.5,-0.2 -0.5,-0.5 v -3.1 c 0,-0.3 0.2,-0.5 0.5,-0.5 h 2.9 c 0.3,0 0.5,0.2 0.5,0.5 z"
             id="path456" />
        </g>
        <g
           class="st27"
           id="g462">
          <path
             class="st15"
             d="m 371.7,349.7 c 0,0.3 -0.2,0.5 -0.5,0.5 h -2.9 c -0.3,0 -0.5,-0.2 -0.5,-0.5 v -3.1 c 0,-0.3 0.2,-0.5 0.5,-0.5 h 2.9 c 0.3,0 0.5,0.2 0.5,0.5 z"
             id="path460" />
        </g>
        <g
           class="st27"
           id="g466">
          <path
             class="st17"
             d="m 350.2,364.1 c 0,0.3 -0.2,0.5 -0.5,0.5 h -2.9 c -0.3,0 -0.5,-0.2 -0.5,-0.5 V 361 c 0,-0.3 0.2,-0.5 0.5,-0.5 h 2.9 c 0.3,0 0.5,0.2 0.5,0.5 z"
             id="path464" />
        </g>
        <g
           class="st27"
           id="g470">
          <path
             class="st19"
             d="m 360.8,364.1 c 0,0.3 -0.2,0.5 -0.5,0.5 h -2.9 c -0.3,0 -0.5,-0.2 -0.5,-0.5 V 361 c 0,-0.3 0.2,-0.5 0.5,-0.5 h 2.9 c 0.3,0 0.5,0.2 0.5,0.5 z"
             id="path468" />
        </g>
        <g
           class="st27"
           id="g474">
          <path
             class="st20"
             d="m 371.7,364.1 c 0,0.3 -0.2,0.5 -0.5,0.5 h -2.9 c -0.3,0 -0.5,-0.2 -0.5,-0.5 V 361 c 0,-0.3 0.2,-0.5 0.5,-0.5 h 2.9 c 0.3,0 0.5,0.2 0.5,0.5 z"
             id="path472" />
        </g>
      </g>
      <g
         id="g482">
        <path
           class="st1"
           d="m 380.2,378.2 c 0,2.6 -1.2,4 -3.5,4 h -56.1 c -2.3,0 -3.5,-1.4 -3.5,-4 v -79.8 c 0,-2.6 1.2,-4 3.5,-4 h 56.1 c 2.3,0 3.5,1.4 3.5,4 z"
           id="path478" />
        <rect
           x="341.94797"
           y="309.60468"
           class="st2"
           width="34.252033"
           height="62.195332"
           id="rect480"
           style="stroke-width:0.741598" />
      </g>
      <g
         id="g634">
        <rect
           x="320.79999"
           y="309.39999"
           class="st3"
           width="21.299999"
           height="62.700001"
           id="rect484" />
        <rect
           x="320.89999"
           y="324.89999"
           class="st1"
           width="21.200001"
           height="17.4"
           id="rect486" />
        <rect
           x="320.79999"
           y="301.29999"
           class="st1"
           width="55.400002"
           height="8.3000002"
           id="rect488" />
        <g
           id="g496">
          <rect
             x="370"
             y="306.20001"
             class="st28"
             width="3.4000001"
             height="0.5"
             id="rect490" />
          <rect
             x="370"
             y="304.70001"
             class="st28"
             width="3.4000001"
             height="0.5"
             id="rect492" />
          <rect
             x="370"
             y="303.20001"
             class="st28"
             width="3.4000001"
             height="0.5"
             id="rect494" />
        </g>
        <path
           class="st4"
           d="m 332.4,316.5 c 0,-2.5 -2.1,-4.6 -4.6,-4.6 -2.5,0 -4.6,2.1 -4.6,4.6 0,2.5 2.1,4.6 4.6,4.6 2.5,0 4.6,-2.1 4.6,-4.6 z"
           id="path498"
           style="display:inline" />
        <rect
           x="333.70001"
           y="317"
           class="st4"
           width="3.0999999"
           height="0.5"
           id="rect500" />
        <rect
           x="329.70001"
           y="326.70001"
           class="st5"
           width="3.9000001"
           height="0.5"
           id="rect502" />
        <rect
           x="335.20001"
           y="326.70001"
           class="st5"
           width="1"
           height="0.5"
           id="rect504" />
        <rect
           x="336.70001"
           y="326.70001"
           class="st5"
           width="1"
           height="0.5"
           id="rect506" />
        <rect
           x="329.39999"
           y="323.79999"
           class="st5"
           width="3.9000001"
           height="0.5"
           id="rect508" />
        <rect
           x="335"
           y="323.79999"
           class="st5"
           width="1"
           height="0.5"
           id="rect510" />
        <rect
           x="336.5"
           y="323.79999"
           class="st5"
           width="1"
           height="0.5"
           id="rect512" />
        <rect
           x="333.70001"
           y="314.89999"
           class="st4"
           width="4.1999998"
           height="0.80000001"
           id="rect514" />
        <rect
           x="337.79999"
           y="317"
           class="st4"
           width="2.7"
           height="0.5"
           id="rect516" />
        <rect
           x="329.70001"
           y="329.39999"
           class="st5"
           width="3.9000001"
           height="0.5"
           id="rect518" />
        <rect
           x="335.20001"
           y="329.39999"
           class="st5"
           width="1"
           height="0.5"
           id="rect520" />
        <rect
           x="336.70001"
           y="329.39999"
           class="st5"
           width="1"
           height="0.5"
           id="rect522" />
        <rect
           x="329.70001"
           y="332"
           class="st5"
           width="3.9000001"
           height="0.5"
           id="rect524" />
        <rect
           x="335.20001"
           y="332"
           class="st5"
           width="1"
           height="0.5"
           id="rect526" />
        <rect
           x="336.70001"
           y="332"
           class="st5"
           width="1"
           height="0.5"
           id="rect528" />
        <path
           class="st4"
           d="m 325.5,336.5 h 14 c 0.1,0 0.1,-0.1 0.1,-0.1 v -1.1 c 0,-0.1 -0.1,-0.1 -0.1,-0.1 h -14 c -0.1,0 -0.1,0.1 -0.1,0.1 v 1.1 c 0,0 0,0.1 0.1,0.1 z"
           id="path530" />
        <path
           class="st7"
           d="m 325.4,336.5 h 4.6 c 0,0 0.1,0 0.1,-0.1 v -1.2 c 0,0 0,-0.1 -0.1,-0.1 h -4.6 c 0,0 -0.1,0 -0.1,0.1 l 0.1,1.3 c 0,-0.1 0,0 0,0 z"
           id="path532" />
        <g
           id="g548"
           style="display:none">
          <path
             class="st8"
             d="m 329,314.9 c 0,1 0,2 -0.8,2 -0.3,0 -1,-0.1 -1.2,-0.3 -0.4,-0.3 -0.4,-0.9 -0.4,-1.6 0,-1 0.4,-1.5 1.1,-1.5 0.8,0.1 1.3,0.4 1.3,1.4 z"
             id="path534" />
          <path
             class="st8"
             d="m 327,315.4 c 0,0.3 -0.2,0.6 -0.3,0.6 -0.2,0 -0.3,-0.3 -0.3,-0.6 0,-0.3 0.2,-0.6 0.3,-0.6 0.1,0 0.3,0.2 0.3,0.6 z"
             id="path536" />
          <polygon
             class="st8"
             points="328.5,314.2 329,314.2 329.1,315.6 328.6,315.6 "
             id="polygon538" />
          <path
             class="st9"
             d="m 328.7,314.9 c 0,-0.1 -0.1,-0.2 -0.2,-0.2 -0.1,0 -0.2,0.1 -0.2,0.2 0,0.1 0.1,0.2 0.2,0.2 0.1,0 0.2,-0.1 0.2,-0.2 z"
             id="path540" />
          <path
             class="st9"
             d="m 328.8,314.2 h -0.7 c 0,0 -0.9,-0.1 -0.9,0.2 0,0.3 -0.1,0.3 -0.1,0.4 0.1,0.3 0,0.4 0,0.4 h -0.3 c 0,0 0.1,-0.4 -0.1,-0.4 -0.2,-0.1 -0.3,0 -0.3,0.1 0.1,-0.5 -0.1,-1.5 0.8,-1.5 0.9,0 1.4,-0.1 1.7,-0.1 0.3,0.1 0.6,0.8 -0.1,0.9 z"
             id="path542" />
          <path
             class="st9"
             d="m 325.4,318.8 h 4.8 c 0,-0.9 -0.7,-1.7 -1.7,-1.7 H 327 c -0.9,0 -1.6,0.8 -1.6,1.7 z"
             id="path544" />
          <polygon
             class="st8"
             points="327,316.4 327,317.2 327.8,317.9 328.2,317.2 328.2,316.4 "
             id="polygon546" />
        </g>
        <g
           id="g552">
          <path
             class="st4"
             d="m 352.6,322.2 c 0,0.7 -0.5,1.2 -1.1,1.2 H 345 c -0.6,0 -1.1,-0.5 -1.1,-1.2 v -6.9 c 0,-0.7 0.5,-1.2 1.1,-1.2 h 6.5 c 0.6,0 1.1,0.5 1.1,1.2 z"
             id="path550" />
        </g>
        <rect
           x="345"
           y="324.39999"
           class="st4"
           width="6"
           height="0.89999998"
           id="rect554" />
        <g
           id="g558">
          <path
             class="st4"
             d="m 363.3,322.2 c 0,0.7 -0.5,1.2 -1.1,1.2 h -6.5 c -0.6,0 -1.1,-0.5 -1.1,-1.2 v -6.9 c 0,-0.7 0.5,-1.2 1.1,-1.2 h 6.5 c 0.6,0 1.1,0.5 1.1,1.2 z"
             id="path556" />
        </g>
        <rect
           x="355.60001"
           y="324.39999"
           class="st4"
           width="6"
           height="0.89999998"
           id="rect560" />
        <g
           id="g564">
          <path
             class="st4"
             d="m 374.1,322.2 c 0,0.7 -0.5,1.2 -1.1,1.2 h -6.5 c -0.6,0 -1.1,-0.5 -1.1,-1.2 v -6.9 c 0,-0.7 0.5,-1.2 1.1,-1.2 h 6.5 c 0.6,0 1.1,0.5 1.1,1.2 z"
             id="path562" />
        </g>
        <rect
           x="366.5"
           y="324.39999"
           class="st4"
           width="6"
           height="0.89999998"
           id="rect566" />
        <g
           id="g570">
          <path
             class="st4"
             d="m 352.6,336.6 c 0,0.7 -0.5,1.2 -1.1,1.2 H 345 c -0.6,0 -1.1,-0.5 -1.1,-1.2 v -6.9 c 0,-0.7 0.5,-1.2 1.1,-1.2 h 6.5 c 0.6,0 1.1,0.5 1.1,1.2 z"
             id="path568" />
        </g>
        <rect
           x="345"
           y="338.79999"
           class="st4"
           width="6"
           height="0.89999998"
           id="rect572" />
        <g
           id="g576">
          <path
             class="st4"
             d="m 363.3,336.6 c 0,0.7 -0.5,1.2 -1.1,1.2 h -6.5 c -0.6,0 -1.1,-0.5 -1.1,-1.2 v -6.9 c 0,-0.7 0.5,-1.2 1.1,-1.2 h 6.5 c 0.6,0 1.1,0.5 1.1,1.2 z"
             id="path574" />
        </g>
        <rect
           x="355.60001"
           y="338.79999"
           class="st4"
           width="6"
           height="0.89999998"
           id="rect578" />
        <g
           id="g582">
          <path
             class="st4"
             d="m 374.1,336.6 c 0,0.7 -0.5,1.2 -1.1,1.2 h -6.5 c -0.6,0 -1.1,-0.5 -1.1,-1.2 v -6.9 c 0,-0.7 0.5,-1.2 1.1,-1.2 h 6.5 c 0.6,0 1.1,0.5 1.1,1.2 z"
             id="path580" />
        </g>
        <rect
           x="366.5"
           y="338.79999"
           class="st4"
           width="6"
           height="0.89999998"
           id="rect584" />
        <g
           id="g588">
          <path
             class="st4"
             d="m 352.6,352.1 c 0,0.7 -0.5,1.2 -1.1,1.2 H 345 c -0.6,0 -1.1,-0.5 -1.1,-1.2 v -6.9 c 0,-0.7 0.5,-1.2 1.1,-1.2 h 6.5 c 0.6,0 1.1,0.5 1.1,1.2 z"
             id="path586" />
        </g>
        <rect
           x="345"
           y="354.29999"
           class="st4"
           width="6"
           height="0.89999998"
           id="rect590" />
        <g
           id="g594">
          <path
             class="st4"
             d="m 363.3,352.1 c 0,0.7 -0.5,1.2 -1.1,1.2 h -6.5 c -0.6,0 -1.1,-0.5 -1.1,-1.2 v -6.9 c 0,-0.7 0.5,-1.2 1.1,-1.2 h 6.5 c 0.6,0 1.1,0.5 1.1,1.2 z"
             id="path592" />
        </g>
        <rect
           x="355.60001"
           y="354.29999"
           class="st4"
           width="6"
           height="0.89999998"
           id="rect596" />
        <g
           id="g600">
          <path
             class="st4"
             d="m 374.1,352.1 c 0,0.7 -0.5,1.2 -1.1,1.2 h -6.5 c -0.6,0 -1.1,-0.5 -1.1,-1.2 v -6.9 c 0,-0.7 0.5,-1.2 1.1,-1.2 h 6.5 c 0.6,0 1.1,0.5 1.1,1.2 z"
             id="path598" />
        </g>
        <rect
           x="366.5"
           y="354.29999"
           class="st4"
           width="6"
           height="0.89999998"
           id="rect602" />
        <g
           id="g606">
          <path
             class="st4"
             d="m 352.6,366.4 c 0,0.7 -0.5,1.2 -1.1,1.2 H 345 c -0.6,0 -1.1,-0.5 -1.1,-1.2 v -6.9 c 0,-0.7 0.5,-1.2 1.1,-1.2 h 6.5 c 0.6,0 1.1,0.5 1.1,1.2 z"
             id="path604" />
        </g>
        <rect
           x="345"
           y="368.60001"
           class="st4"
           width="6"
           height="0.89999998"
           id="rect608" />
        <g
           id="g612">
          <path
             class="st4"
             d="m 363.3,366.4 c 0,0.7 -0.5,1.2 -1.1,1.2 h -6.5 c -0.6,0 -1.1,-0.5 -1.1,-1.2 v -6.9 c 0,-0.7 0.5,-1.2 1.1,-1.2 h 6.5 c 0.6,0 1.1,0.5 1.1,1.2 z"
             id="path610" />
        </g>
        <rect
           x="355.60001"
           y="368.60001"
           class="st4"
           width="6"
           height="0.89999998"
           id="rect614" />
        <g
           id="g618">
          <path
             class="st4"
             d="m 374.1,366.4 c 0,0.7 -0.5,1.2 -1.1,1.2 h -6.5 c -0.6,0 -1.1,-0.5 -1.1,-1.2 v -6.9 c 0,-0.7 0.5,-1.2 1.1,-1.2 h 6.5 c 0.6,0 1.1,0.5 1.1,1.2 z"
             id="path616" />
        </g>
        <rect
           x="366.5"
           y="368.60001"
           class="st4"
           width="6"
           height="0.89999998"
           id="rect620" />
        <rect
           x="368.89999"
           y="310.10001"
           class="st4"
           width="6.4000001"
           height="0.60000002"
           id="rect622" />
        <rect
           x="364.20001"
           y="310.10001"
           class="st4"
           width="4.1999998"
           height="0.60000002"
           id="rect624" />
        <rect
           x="344.79999"
           y="310.10001"
           class="st4"
           width="4.1999998"
           height="0.60000002"
           id="rect626" />
        <rect
           x="334.60001"
           y="305"
           class="st22"
           width="8"
           height="1.8"
           id="rect628" />
        <g
           id="g632">
          <path
             class="st4"
             d="m 330,304.1 v 0 c -0.4,-0.9 -1.3,-1.5 -2.3,-1.5 -1.3,0 -2.3,1 -2.4,2.2 -0.9,0.1 -1.5,0.8 -1.5,1.6 0,0.9 0.7,1.6 1.6,1.6 h 1.3 c 0.1,0 0.6,0 0.6,0 v -1.9 h -0.9 l 1.3,-1.6 1.3,1.6 h -0.9 v 1.9 h 1.7 c 1,0 1.9,-0.8 1.9,-1.9 V 306 c 0.2,-1.1 -0.6,-1.9 -1.7,-1.9 z"
             id="path630" />
        </g>
      </g>
    </g>
    <g
       id="PHONE_3_"
       style="display:inline">
      <path
         class="st1"
         d="m 343.1,389.6 c 0,2.2 -1,3.4 -2.9,3.4 h -35.6 c -1.9,0 -2.9,-1.2 -2.9,-3.4 v -66.8 c 0,-2.2 1,-3.4 2.9,-3.4 h 35.6 c 1.9,0 2.9,1.2 2.9,3.4 z"
         id="path637"
         style="display:inline" />
      <g
         id="g727"
         style="display:inline">
        <rect
           x="305"
           y="361.80002"
           class="st2"
           width="34.799999"
           height="22.199993"
           id="rect639"
           style="display:inline;stroke-width:0.614452" />
        <rect
           x="305"
           y="333.10001"
           class="st3"
           width="34.900002"
           height="28.700001"
           id="rect641" />
        <rect
           x="305"
           y="325"
           class="st1"
           width="34.900002"
           height="8.1000004"
           id="rect643"
           style="display:inline" />
        <g
           id="g651">
          <rect
             x="333.89999"
             y="330.10001"
             class="st28"
             width="3.4000001"
             height="0.5"
             id="rect645" />
          <rect
             x="333.89999"
             y="328.60001"
             class="st28"
             width="3.4000001"
             height="0.5"
             id="rect647" />
          <rect
             x="333.89999"
             y="327.10001"
             class="st28"
             width="3.4000001"
             height="0.5"
             id="rect649" />
        </g>
        <path
           class="st4"
           d="m 316.4,340.2 c 0,-2.5 -2.1,-4.6 -4.6,-4.6 -2.5,0 -4.6,2.1 -4.6,4.6 0,2.5 2.1,4.6 4.6,4.6 2.5,0 4.6,-2.1 4.6,-4.6 z"
           id="path653" />
        <rect
           x="317.60001"
           y="340.70001"
           class="st4"
           width="3.0999999"
           height="0.5"
           id="rect655" />
        <rect
           x="313.60001"
           y="350.39999"
           class="st5"
           width="3.9000001"
           height="0.5"
           id="rect657" />
        <rect
           x="319.20001"
           y="350.39999"
           class="st5"
           width="1"
           height="0.5"
           id="rect659" />
        <rect
           x="320.70001"
           y="350.39999"
           class="st5"
           width="1"
           height="0.5"
           id="rect661" />
        <rect
           x="313.39999"
           y="347.5"
           class="st5"
           width="3.9000001"
           height="0.5"
           id="rect663" />
        <rect
           x="319"
           y="347.5"
           class="st5"
           width="1"
           height="0.5"
           id="rect665" />
        <rect
           x="320.5"
           y="347.5"
           class="st5"
           width="1"
           height="0.5"
           id="rect667" />
        <rect
           x="317.60001"
           y="338.60001"
           class="st4"
           width="4.1999998"
           height="0.80000001"
           id="rect669" />
        <rect
           x="321.79999"
           y="340.70001"
           class="st4"
           width="2.7"
           height="0.5"
           id="rect671" />
        <rect
           x="313.60001"
           y="353.10001"
           class="st5"
           width="3.9000001"
           height="0.5"
           id="rect673" />
        <rect
           x="319.20001"
           y="353.10001"
           class="st5"
           width="1"
           height="0.5"
           id="rect675" />
        <rect
           x="320.70001"
           y="353.10001"
           class="st5"
           width="1"
           height="0.5"
           id="rect677" />
        <rect
           x="313.60001"
           y="355.70001"
           class="st5"
           width="3.9000001"
           height="0.5"
           id="rect679" />
        <rect
           x="319.20001"
           y="355.70001"
           class="st5"
           width="1"
           height="0.5"
           id="rect681" />
        <rect
           x="320.70001"
           y="355.70001"
           class="st5"
           width="1"
           height="0.5"
           id="rect683" />
        <path
           class="st4"
           d="m 309.5,360.2 h 14 c 0.1,0 0.1,-0.1 0.1,-0.1 V 359 c 0,-0.1 -0.1,-0.1 -0.1,-0.1 h -14 c -0.1,0 -0.1,0.1 -0.1,0.1 v 1.1 c 0,0 0,0.1 0.1,0.1 z"
           id="path685" />
        <path
           class="st7"
           d="m 309.4,360.2 h 4.6 c 0,0 0.1,0 0.1,-0.1 v -1.2 c 0,0 0,-0.1 -0.1,-0.1 h -4.6 c 0,0 -0.1,0 -0.1,0.1 l 0.1,1.3 c 0,-0.1 0,0 0,0 z"
           id="path687" />
        <g
           id="g703"
           style="display:none">
          <path
             class="st8"
             d="m 313,338.6 c 0,1 0,2 -0.8,2 -0.3,0 -1,-0.1 -1.2,-0.3 -0.4,-0.3 -0.4,-0.9 -0.4,-1.6 0,-1 0.4,-1.5 1.1,-1.5 0.8,0.1 1.3,0.5 1.3,1.4 z"
             id="path689" />
          <path
             class="st8"
             d="m 311,339.1 c 0,0.3 -0.2,0.6 -0.3,0.6 -0.2,0 -0.3,-0.3 -0.3,-0.6 0,-0.3 0.2,-0.6 0.3,-0.6 0.1,0 0.3,0.2 0.3,0.6 z"
             id="path691" />
          <polygon
             class="st8"
             points="313.1,339.3 312.6,339.3 312.5,337.9 313,337.9 "
             id="polygon693" />
          <path
             class="st9"
             d="m 312.6,338.6 c 0,-0.1 -0.1,-0.2 -0.2,-0.2 -0.1,0 -0.2,0.1 -0.2,0.2 0,0.1 0.1,0.2 0.2,0.2 0.1,0 0.2,-0.1 0.2,-0.2 z"
             id="path695" />
          <path
             class="st9"
             d="m 312.8,338 h -0.7 c 0,0 -0.9,-0.1 -0.9,0.2 0,0.3 -0.1,0.3 -0.1,0.4 0.1,0.3 0,0.4 0,0.4 h -0.3 c 0,0 0.1,-0.4 -0.1,-0.4 -0.2,-0.1 -0.3,0 -0.3,0.1 0.1,-0.5 -0.1,-1.5 0.8,-1.5 0.9,0 1.4,-0.1 1.7,-0.1 0.3,0 0.6,0.7 -0.1,0.9 z"
             id="path697" />
          <path
             class="st9"
             d="m 309.3,342.5 h 4.8 c 0,-0.9 -0.7,-1.7 -1.7,-1.7 H 311 c -0.9,0 -1.7,0.8 -1.7,1.7 z"
             id="path699" />
          <polygon
             class="st8"
             points="311,340.1 311,340.9 311.8,341.7 312.2,340.9 312.2,340.1 "
             id="polygon701" />
        </g>
        <g
           id="g707">
          <rect
             x="325.29999"
             y="366.89999"
             class="st4"
             width="9.8000002"
             height="9.6000004"
             id="rect705" />
        </g>
        <g
           id="g711">
          <polygon
             class="st4"
             points="310,366.9 319.6,366.9 319.6,376.3 310,376.3 "
             id="polygon709" />
        </g>
        <rect
           x="310.39999"
           y="378"
           class="st11"
           width="2.7"
           height="0.80000001"
           id="rect713" />
        <rect
           x="313.89999"
           y="378"
           class="st11"
           width="5.3000002"
           height="0.80000001"
           id="rect715" />
        <rect
           x="325.70001"
           y="378"
           class="st11"
           width="2.7"
           height="0.80000001"
           id="rect717" />
        <rect
           x="329.20001"
           y="378"
           class="st11"
           width="5.3000002"
           height="0.80000001"
           id="rect719" />
        <rect
           x="316.79999"
           y="328.79999"
           class="st22"
           width="7.1999998"
           height="1.6"
           id="rect721" />
        <g
           id="g725"
           style="display:inline">
          <path
             class="st4"
             d="m 312.7,327.9 v 0 c -0.4,-0.8 -1.1,-1.3 -2.1,-1.3 -1.1,0 -2.1,0.9 -2.2,2 -0.8,0 -1.4,0.7 -1.4,1.5 0,0.8 0.7,1.5 1.5,1.5 h 1.2 c 0.1,0 0.6,0 0.6,0 v -1.7 h -0.8 l 1.2,-1.4 1.2,1.4 h -0.8 v 1.7 h 1.5 c 0.9,0 1.7,-0.8 1.7,-1.7 v -0.2 c 0.1,-1 -0.6,-1.8 -1.6,-1.8 z"
             id="path723" />
        </g>
      </g>
    </g>
  </g>
  <g
     id="html"
     style="display:inline;fill:none;fill-rule:evenodd;stroke:none;stroke-width:1"
     transform="matrix(0.18746519,0,0,0.18746519,3.6918782,67.682919)">
    <polygon
       id="Path-7"
       fill="#e44d26"
       points="181.6835,50.182889 165.1605,234.81472 90.889,255.3532 16.822,234.84365 0.3165,50.182889 " />
    <polygon
       id="polygon811"
       fill="#f16529"
       points="91,65.281644 91,239.65446 151.015,223.058 165.135,65.281644 " />
    <polygon
       id="polygon813"
       fill="#ebebeb"
       points="91,110.57791 91,87.929777 34.066,87.929777 34.6095,94.005887 40.19,156.4173 91,156.4173 91,133.76967 60.955,133.76967 58.88,110.57791 " />
    <polygon
       id="polygon815"
       fill="#ebebeb"
       points="65.6135,185.80436 63.997,167.74162 41.2045,167.74162 44.3855,203.30204 90.8955,216.18092 91,216.152 91,192.58868 90.9005,192.61511 " />
    <polygon
       id="polygon817"
       fill="#000000"
       points="39.285,34.434778 39.285,22.903985 28.73,22.903985 28.73,34.434778 17.1915,34.434778 17.1915,0 17.191,0 28.7295,0 28.7295,11.371197 39.2845,11.371197 39.2845,0 50.8235,0 50.8235,34.434778 "
       style="display:inline;fill:#ffffff" />
    <polygon
       id="polygon819"
       fill="#000000"
       points="77.5365,11.419076 77.5365,34.434778 65.9975,34.434778 65.9975,11.419076 65.997,11.419076 55.839,11.419076 55.839,0 87.699,0 87.699,11.419076 "
       style="display:inline;fill:#ffffff" />
    <polygon
       id="polygon821"
       fill="#000000"
       points="120.1265,17.36701 112.188,29.610498 111.9895,29.610498 104.0455,17.36701 104.0455,34.434778 92.7555,34.434778 92.7555,0 104.787,0 112.188,12.099353 119.5815,0 131.6175,0 131.6175,34.434778 120.1265,34.434778 "
       style="display:inline;fill:#ffffff" />
    <polygon
       id="polygon823"
       fill="#000000"
       points="137.36,34.434778 137.36,0 148.902,0 148.902,23.052609 165.1285,23.052609 165.1285,34.434778 "
       style="display:inline;fill:#ffffff" />
    <polygon
       id="polygon825"
       fill="#ffffff"
       points="137.4685,203.30204 137.81,199.47574 143.1455,139.85126 143.6995,133.76967 90.9215,133.76967 90.9215,156.4173 118.8805,156.4173 116.245,185.7899 90.9215,192.60763 90.9215,216.16995 " />
    <polygon
       id="polygon827"
       fill="#ffffff"
       points="146.221,105.48731 147.2555,94.005887 147.7985,87.929777 90.9215,87.929777 90.9215,110.52255 90.9215,110.57791 145.7655,110.57791 "
       style="display:inline" />
  </g>
  <g
     id="g887"
     transform="matrix(0.2716002,0,0,0.2716002,97.966379,9.4925872)"
     style="display:inline">
    <path
       fill="#f0db4f"
       d="M 1.408,1.408 H 126.592 V 126.593 H 1.408 Z"
       id="path873" />
    <path
       fill="#323330"
       d="m 116.347,96.736 c -0.917,-5.711 -4.641,-10.508 -15.672,-14.981 -3.832,-1.761 -8.104,-3.022 -9.377,-5.926 -0.452,-1.69 -0.512,-2.642 -0.226,-3.665 0.821,-3.32 4.784,-4.355 7.925,-3.403 2.023,0.678 3.938,2.237 5.093,4.724 5.402,-3.498 5.391,-3.475 9.163,-5.879 -1.381,-2.141 -2.118,-3.129 -3.022,-4.045 -3.249,-3.629 -7.676,-5.498 -14.756,-5.355 l -3.688,0.477 c -3.534,0.893 -6.902,2.748 -8.877,5.235 -5.926,6.724 -4.236,18.492 2.975,23.335 7.104,5.332 17.54,6.545 18.873,11.531 1.297,6.104 -4.486,8.08 -10.234,7.378 -4.236,-0.881 -6.592,-3.034 -9.139,-6.949 -4.688,2.713 -4.688,2.713 -9.508,5.485 1.143,2.499 2.344,3.63 4.26,5.795 9.068,9.198 31.76,8.746 35.83,-5.176 0.165,-0.478 1.261,-3.666 0.38,-8.581 z M 69.462,58.943 H 57.753 l -0.048,30.272 c 0,6.438 0.333,12.34 -0.714,14.149 -1.713,3.558 -6.152,3.117 -8.175,2.427 -2.059,-1.012 -3.106,-2.451 -4.319,-4.485 -0.333,-0.584 -0.583,-1.036 -0.667,-1.071 l -9.52,5.83 c 1.583,3.249 3.915,6.069 6.902,7.901 4.462,2.678 10.459,3.499 16.731,2.059 4.082,-1.189 7.604,-3.652 9.448,-7.401 2.666,-4.915 2.094,-10.864 2.07,-17.444 0.06,-10.735 0.001,-21.468 0.001,-32.237 z"
       id="path875" />
  </g>
  <g
     id="typescript"
     style="display:inline;fill:none;fill-rule:evenodd;stroke:none;stroke-width:1"
     transform="matrix(0.1328125,0,0,0.1328125,315.54878,89.27501)">
    <polygon
       id="Path-9"
       fill="#007acc"
       transform="matrix(1,0,0,-1,0,256)"
       points="256,128 256,256 128,256 0,256 0,128 0,0 128,0 256,0 " />
    <path
       d="m 146.65813,223.43686 0.0813,-10.48381 H 130.07908 113.41877 V 165.61337 118.27369 H 101.63464 89.850514 v 47.33968 47.33968 H 73.190196 56.529879 v 10.28064 c 0,5.68889 0.121905,10.44317 0.284444,10.56508 0.121905,0.16254 20.398731,0.24381 44.982857,0.20317 l 44.73905,-0.1219 z"
       id="path913"
       fill="#ffffff"
       transform="rotate(180,101.63464,176.14299)" />
    <path
       d="m 206.56663,234.27214 c 6.50159,-1.62539 11.45905,-4.51047 16.01016,-9.22412 2.35683,-2.51937 5.85143,-7.11111 6.13587,-8.20826 0.0813,-0.32508 -11.0527,-7.8019 -17.79809,-11.9873 -0.24381,-0.16254 -1.21905,0.89397 -2.31619,2.51937 -3.29143,4.79492 -6.7454,6.8673 -12.02794,7.23301 -7.76127,0.52826 -12.75936,-3.53524 -12.71873,-10.32127 0,-1.99111 0.28444,-3.16952 1.09714,-4.79492 1.70667,-3.53524 4.87619,-5.64825 14.83175,-9.95555 18.32635,-7.88318 26.16889,-13.08445 31.04508,-20.48 5.44508,-8.24889 6.66413,-21.41461 2.96635,-31.20762 -4.06349,-10.64635 -14.14095,-17.87937 -28.32254,-20.27683 -4.38857,-0.77206 -14.79111,-0.65016 -19.50476,0.20318 -10.28064,1.82857 -20.03302,6.90793 -26.04699,13.57206 -2.35682,2.60063 -6.94857,9.38667 -6.66412,9.87428 0.1219,0.16254 1.17841,0.8127 2.35682,1.5035 1.13778,0.65016 5.44508,3.12889 9.50857,5.48571 l 7.35492,4.26667 1.54413,-2.27556 c 2.15365,-3.29143 6.8673,-7.8019 9.71175,-9.30539 8.16761,-4.30731 19.38285,-3.69778 24.9092,1.25968 2.35683,2.15365 3.33207,4.38857 3.33207,7.68 0,2.96635 -0.36572,4.26666 -1.90985,6.50159 -1.99111,2.84444 -6.0546,5.2419 -17.59492,10.24 -13.20635,5.68888 -18.89523,9.22412 -24.0965,14.83174 -3.00699,3.2508 -5.85143,8.45206 -7.02985,12.8 -0.97523,3.61651 -1.21904,12.6781 -0.44698,16.33524 2.72254,12.75936 12.35302,21.65841 26.25016,24.29968 4.51048,0.85334 14.99428,0.52826 19.42349,-0.56889 z"
       id="path915"
       fill="#ffffff"
       transform="matrix(1,0,0,-1,0,352.38048)" />
  </g>
  <g
     id="g3013"
     transform="matrix(0.0937326,0,0,0.0937326,55.453243,103.28433)">
    <polygon
       id="polygon2989"
       points="437.367,100.62 404.321,470.819 255.778,512 107.644,470.877 74.633,100.62 "
       style="fill:#264de4" />
    <polygon
       id="polygon2991"
       points="256,480.523 376.03,447.246 404.27,130.894 256,130.894 "
       style="fill:#2965f1" />
    <polygon
       id="polygon2993"
       points="256,268.217 150.31,268.217 154.38,313.627 256,313.627 "
       style="fill:#ebebeb" />
    <polygon
       id="polygon2995"
       points="256,176.305 255.843,176.305 142.132,176.305 146.26,221.716 256,221.716 "
       style="fill:#ebebeb" />
    <polygon
       id="polygon2997"
       points="255.791,433.457 256,433.399 256,386.153 255.801,386.206 205.227,372.55 201.994,336.333 177.419,336.333 156.409,336.333 162.771,407.634 "
       style="fill:#ebebeb" />
    <path
       id="path2999"
       d="m 160,0 h 55 v 23 h -32 v 23 h 32 v 23 h -55 z"
       style="display:inline;fill:#ffffff" />
    <path
       id="path3001"
       d="m 226,0 h 55 v 20 h -32 v 4 h 32 V 70 H 226 V 49 h 32 v -4 h -32 z"
       style="display:inline;fill:#ffffff" />
    <path
       id="path3003"
       d="m 292,0 h 55 v 20 h -32 v 4 h 32 V 70 H 292 V 49 h 32 v -4 h -32 z"
       style="display:inline;fill:#ffffff" />
    <polygon
       id="polygon3005"
       points="255.843,176.305 255.843,221.716 319.831,221.716 315.699,268.217 255.843,268.217 255.843,313.627 311.761,313.627 306.49,372.521 255.843,386.191 255.843,433.435 348.937,407.634 349.62,399.962 360.291,280.411 361.399,268.217 369.597,176.305 "
       style="display:inline;fill:#ffffff" />
  </g>
  <g
     style="fill:none"
     id="g1352"
     transform="matrix(0.1328125,0,0,0.1328125,182.28475,19)">
    <g
       id="g888">
      <rect
         width="256"
         height="256"
         fill="#242938"
         rx="60"
         id="rect2"
         x="0"
         y="0" />
      <path
         fill="#00d8ff"
         d="m 128.001,146.951 c 10.304,0 18.656,-8.353 18.656,-18.656 0,-10.303 -8.352,-18.656 -18.656,-18.656 -10.303,0 -18.656,8.353 -18.656,18.656 0,10.303 8.353,18.656 18.656,18.656 z"
         id="path4" />
      <path
         fill-rule="evenodd"
         stroke="#00d8ff"
         stroke-width="8.911"
         d="m 128.002,90.3633 c 25.048,0 48.317,3.5942 65.862,9.6343 21.139,7.2774 34.136,18.3084 34.136,28.2974 0,10.409 -13.774,22.128 -36.475,29.649 -17.162,5.686 -39.746,8.654 -63.523,8.654 -24.378,0 -47.4631,-2.786 -64.8186,-8.717 C 41.2255,150.376 28,138.506 28,128.295 c 0,-9.908 12.4096,-20.854 33.2515,-28.12 17.6102,-6.1397 41.4535,-9.8117 66.7465,-9.8117 z"
         clip-rule="evenodd"
         id="path6-0" />
      <path
         fill-rule="evenodd"
         stroke="#00d8ff"
         stroke-width="8.911"
         d="M 94.9811,109.438 C 107.495,87.7402 122.232,69.3783 136.23,57.1971 c 16.864,-14.6765 32.914,-20.4243 41.566,-15.4348 9.017,5.2 12.288,22.9873 7.463,46.4089 -3.645,17.7078 -12.359,38.7538 -24.238,59.3518 -12.179,21.118 -26.124,39.724 -39.931,51.792 -17.471,15.272 -34.3616,20.799 -43.2067,15.698 -8.583,-4.946 -11.8652,-21.167 -7.7477,-42.852 3.4789,-18.323 12.2095,-40.812 24.8414,-62.723 z"
         clip-rule="evenodd"
         id="path8-8" />
      <path
         fill-rule="evenodd"
         stroke="#00d8ff"
         stroke-width="8.911"
         d="M 95.0123,147.578 C 82.4633,125.904 73.9194,103.962 70.3531,85.7517 66.0602,63.8109 69.0954,47.0355 77.7401,42.0315 c 9.0084,-5.2152 26.0519,0.8345 43.9339,16.7122 13.52,12.0042 27.403,30.0615 39.316,50.6393 12.214,21.098 21.368,42.473 24.929,60.461 4.506,22.764 0.859,40.157 -7.978,45.272 -8.574,4.964 -24.265,-0.291 -40.996,-14.689 -14.136,-12.164 -29.26,-30.959 -41.9327,-52.849 z"
         clip-rule="evenodd"
         id="path10-5" />
    </g>
  </g>
</svg>
